<?xml version="1.0" encoding="UTF-8"?>
<!DOCTYPE svg PUBLIC "-//W3C//DTD SVG 1.1//EN" "http://www.w3.org/Graphics/SVG/1.1/DTD/svg11.dtd">
<!-- Creator: CorelDRAW -->
<svg xmlns="http://www.w3.org/2000/svg" xml:space="preserve" width="6000px" height="2537px" version="1.1" style="shape-rendering:geometricPrecision; text-rendering:geometricPrecision; image-rendering:optimizeQuality; fill-rule:evenodd; clip-rule:evenodd"
viewBox="0 0 6000 2537.5"
 xmlns:xlink="http://www.w3.org/1999/xlink"
 xmlns:xodm="http://www.corel.com/coreldraw/odm/2003">
 <defs>
  <style type="text/css">
   <![CDATA[
    .fil0 {fill:#FEF7E8}
   ]]>
  </style>
 </defs>
 <g id="Layer_x0020_1">
  <metadata id="CorelCorpID_0Corel-Layer"/>
  <path class="fil0" d="M6000 0c0,0 0,1942.15 0,2234.38 -146.06,28.92 -320.25,-39.35 -472.03,-10.79 -150.41,28.3 -282.47,158.52 -439.09,181.37 -152,22.16 -323.25,-63.63 -480.54,-46.85 -153.18,16.34 -297.15,135.92 -454.81,146.91 -154.03,10.75 -316.9,-87.3 -474.72,-81.88 -154.56,5.31 -308.59,114.36 -466.31,114.36 -157.71,0 -311.71,-109.05 -466.28,-114.36 -157.78,-5.42 -320.65,92.63 -474.67,81.89 -157.66,-10.99 -301.64,-130.58 -454.82,-146.91 -157.28,-16.78 -328.52,69.01 -480.52,46.85 -156.65,-22.85 -288.72,-153.06 -439.13,-181.37 -155.68,-29.29 -334.96,42.1 -483.28,7.26 -153.18,-35.99 -269.72,-175.31 -413.8,-218.36 0,-103.38 0,-2012.5 0,-2012.5l6000 0z"/>
 </g>
</svg>
