<svg width="100" height="100" viewBox="0 0 100 100" fill="none" xmlns="http://www.w3.org/2000/svg">
<g id="book_1945958 (1)" clip-path="url(#clip0_216_11)">
<g id="g3453">
<g id="g3455">
<g id="Clip path group">
<mask id="mask0_216_11" style="mask-type:luminance" maskUnits="userSpaceOnUse" x="0" y="0" width="100" height="100">
<g id="clipPath3461">
<path id="path3459" d="M0 1.52588e-05H100V100H0V1.52588e-05Z" fill="white"/>
</g>
</mask>
<g mask="url(#mask0_216_11)">
<g id="g3457">
<g id="g3463">
<path id="path3465" d="M49.9965 86.5657C56.4797 82.8083 78.199 80.6333 91.1156 86.5657" stroke="#F42525" stroke-width="3" stroke-miterlimit="10" stroke-linecap="round" stroke-linejoin="round"/>
</g>
<g id="g3467">
<path id="path3469" d="M49.9976 86.5658C43.5201 82.8084 21.7953 80.6334 8.88416 86.5658" stroke="#F42525" stroke-width="3" stroke-miterlimit="10" stroke-linecap="round" stroke-linejoin="round"/>
</g>
<g id="g3471">
<path id="path3473" d="M73.0115 97.9215L90.1799 97.8994C95.5615 97.8938 98.5345 94.0145 98.5345 89.925V38.5361C98.5345 35.3043 95.8881 32.6592 92.6547 32.6592H91.1156M49.9965 86.5656V97.9492L66.1685 97.9326" stroke="#F42525" stroke-width="3" stroke-miterlimit="10" stroke-linecap="round" stroke-linejoin="round"/>
</g>
<g id="g3475">
<path id="path3477" d="M42.0745 61.2202C38.0329 58.8737 24.5018 57.518 16.452 61.2202" stroke="#F42525" stroke-width="3" stroke-miterlimit="10" stroke-linecap="round" stroke-linejoin="round"/>
</g>
<g id="g3479">
<path id="path3481" d="M42.0745 72.0556C38.0329 69.7091 24.5018 68.3535 16.452 72.0556" stroke="#F42525" stroke-width="3" stroke-miterlimit="10" stroke-linecap="round" stroke-linejoin="round"/>
</g>
<g id="g3483">
<path id="path3485" d="M42.0745 50.3845C38.0329 48.0382 24.5018 46.6769 16.452 50.3845" stroke="#F42525" stroke-width="3" stroke-miterlimit="10" stroke-linecap="round" stroke-linejoin="round"/>
</g>
<g id="g3487">
<path id="path3489" d="M49.9969 97.9492L9.81921 97.8994C4.4321 97.8939 1.46472 94.0144 1.46472 89.9249V38.5363C1.46472 35.3044 4.10554 32.6593 7.33894 32.6593H8.88347" stroke="#F42525" stroke-width="3" stroke-miterlimit="10" stroke-linecap="round" stroke-linejoin="round"/>
</g>
<g id="g3491">
<path id="path3493" d="M25.2104 25.2382C20.1336 25.5147 16.7729 26.0462 13.5563 26.9593C10.0684 27.9499 8.88342 28.2651 8.88342 31.2093V87.3737C8.88342 89.0893 10.251 90.4948 11.9231 90.4948H49.9969M49.9969 28.697C47.1625 27.0532 41.41 25.7141 32.474 25.227" stroke="#F42525" stroke-width="3" stroke-miterlimit="10" stroke-linecap="round" stroke-linejoin="round"/>
</g>
<g id="g3495">
<path id="path3497" d="M57.9259 61.2202C61.962 58.8737 75.4986 57.518 83.5429 61.2202" stroke="#F42525" stroke-width="3" stroke-miterlimit="10" stroke-linecap="round" stroke-linejoin="round"/>
</g>
<g id="g3499">
<path id="path3501" d="M57.9259 72.0556C61.962 69.7091 75.4986 68.3535 83.5429 72.0556" stroke="#F42525" stroke-width="3" stroke-miterlimit="10" stroke-linecap="round" stroke-linejoin="round"/>
</g>
<g id="g3503">
<path id="path3505" d="M49.9965 86.5657C56.4797 82.8083 78.199 80.6333 91.1156 86.5657" stroke="#F42525" stroke-width="3" stroke-miterlimit="10" stroke-linecap="round" stroke-linejoin="round"/>
</g>
<g id="g3507">
<path id="path3509" d="M49.9976 86.5658C43.5201 82.8084 21.7953 80.6334 8.88416 86.5658" stroke="#F42525" stroke-width="3" stroke-miterlimit="10" stroke-linecap="round" stroke-linejoin="round"/>
</g>
<g id="g3511">
<path id="path3513" d="M49.9965 28.697V86.5657" stroke="#F42525" stroke-width="3" stroke-miterlimit="10" stroke-linecap="round" stroke-linejoin="round"/>
</g>
<g id="g3515">
<path id="path3517" d="M69.3914 41.486V28.3041" stroke="#F42525" stroke-width="3" stroke-miterlimit="10" stroke-linecap="round" stroke-linejoin="round"/>
</g>
<g id="g3519">
<path id="path3521" d="M73.184 28.3041H69.3917H65.4495" stroke="#F42525" stroke-width="3" stroke-miterlimit="10" stroke-linecap="round" stroke-linejoin="round"/>
</g>
<g id="g3523">
<path id="path3525" d="M69.4022 5.92444V2.05061" stroke="#F42525" stroke-width="3" stroke-miterlimit="10" stroke-linecap="round" stroke-linejoin="round"/>
</g>
<g id="g3527">
<path id="path3529" d="M54.0942 6.63301L56.8405 9.37793" stroke="#F42525" stroke-width="3" stroke-miterlimit="10" stroke-linecap="round" stroke-linejoin="round"/>
</g>
<g id="g3531">
<path id="path3533" d="M84.7048 6.63295L81.9644 9.37787" stroke="#F42525" stroke-width="3" stroke-miterlimit="10" stroke-linecap="round" stroke-linejoin="round"/>
</g>
<g id="g3535">
<path id="path3537" d="M64.7849 41.486H74.003C75.9962 41.486 77.6296 43.1184 77.6296 45.1108C77.6296 47.103 75.9962 48.7299 74.003 48.7299H64.7849C62.7864 48.7299 61.1587 47.103 61.1587 45.1108C61.1587 43.1184 62.7864 41.486 64.7849 41.486Z" stroke="#F42525" stroke-width="3" stroke-miterlimit="10" stroke-linecap="round" stroke-linejoin="round"/>
</g>
<g id="g3539">
<path id="path3541" d="M64.4307 41.486H69.3913H74.3575C74.3575 33.5061 82.0862 32.4766 82.0753 23.8934C82.0641 15.7143 75.7304 11.6908 69.3913 11.7852C63.0577 11.6908 56.7239 15.7143 56.7128 23.8934C56.7018 32.4766 64.4307 33.5061 64.4307 41.486Z" stroke="#F42525" stroke-width="3" stroke-miterlimit="10" stroke-linecap="round" stroke-linejoin="round"/>
</g>
<g id="g3543">
<path id="path3545" d="M81.914 25.952C83.5418 26.2174 85.009 26.5496 86.4373 26.959C89.9308 27.9498 91.1156 28.2651 91.1156 31.2092V87.3737C91.1156 89.0893 89.7426 90.4948 88.0705 90.4948H49.9965M49.9965 28.6969C51.4914 27.8278 53.8002 27.0475 56.9613 26.4334" stroke="#F42525" stroke-width="3" stroke-miterlimit="10" stroke-linecap="round" stroke-linejoin="round"/>
</g>
<g id="g3547">
<path id="path3549" d="M42.0745 39.5435C38.0329 37.2026 24.5018 35.8413 16.452 39.5435" stroke="#F42525" stroke-width="3" stroke-miterlimit="10" stroke-linecap="round" stroke-linejoin="round"/>
</g>
</g>
</g>
</g>
</g>
</g>
</g>
<defs>
<clipPath id="clip0_216_11">
<rect width="100" height="100" fill="white"/>
</clipPath>
</defs>
</svg>
