<svg width="24" height="25" viewBox="0 0 24 25" fill="none" xmlns="http://www.w3.org/2000/svg">
<path id="Vector" d="M11.9998 0.790043C18.6111 0.78454 23.9845 6.15092 24 12.7488C24.0155 19.3836 18.6255 24.8163 11.899 24.7899C5.38324 24.7644 0.00041874 19.3782 2.54773e-08 12.8229C-0.000426035 6.15372 5.34298 0.795583 11.9998 0.790043ZM15.8261 19.9859C15.8769 19.9656 15.9926 19.9389 16.0868 19.8786C17.1644 19.1881 18.1538 18.3907 18.9926 17.4194C19.2892 17.076 19.2761 16.8815 18.911 16.606C17.9196 15.8577 16.8664 15.2059 15.7312 14.6958C15.3762 14.5362 15.2587 14.5712 14.9847 14.8672C14.6907 15.1847 14.4023 15.5079 14.1237 15.8389C13.9953 15.9913 13.8648 16.017 13.6875 15.9435C13.3812 15.8164 13.0589 15.7236 12.7628 15.5769C10.8269 14.6178 9.49987 13.1241 8.82815 11.0603C8.77822 10.9069 8.79629 10.7959 8.92176 10.6872C9.27406 10.3822 9.61818 10.0677 9.96706 9.75861C10.1733 9.57595 10.2333 9.36219 10.1073 9.11096C9.89138 8.68061 9.6966 8.23711 9.44809 7.82626C9.05248 7.17221 8.63743 6.52816 8.1969 5.90364C7.91546 5.50464 7.71261 5.49105 7.35133 5.80454C6.38864 6.63989 5.59363 7.62165 4.91325 8.69518C4.83367 8.82075 4.81315 9.01191 4.82985 9.16564C4.92333 10.0258 5.19644 10.8395 5.5808 11.607C7.27241 14.9851 9.81509 17.5227 13.1944 19.2107C13.9997 19.613 14.8568 19.8843 15.8261 19.9859ZM12.5251 6.55736C15.9769 6.93978 17.8605 8.83512 18.2255 12.2551H19.1817C19.2044 8.31222 15.7604 5.47371 12.5251 5.626V6.55736ZM12.5304 9.17457C14.0262 9.20767 15.5223 10.3238 15.623 12.2581H16.5822C16.7338 10.1666 14.7163 8.0646 12.5304 8.20022L12.5304 9.17457Z" fill="#E31E24"/>
</svg>
