<svg width="100" height="100" viewBox="0 0 100 100" fill="none" xmlns="http://www.w3.org/2000/svg">
<g id="leadership_18224735" clip-path="url(#clip0_216_70)">
<path id="Vector" d="M50 28.6515C44.3067 28.6515 39.6746 33.281 39.6746 38.9717C39.6746 44.6623 44.3065 49.2971 50 49.2971C55.6936 49.2971 60.3254 44.665 60.3254 38.9717C60.3254 33.2783 55.6934 28.6515 50 28.6515ZM50 46.9496C45.601 46.9496 42.0221 43.3709 42.0221 38.9717C42.0221 34.5724 45.601 30.9992 50 30.9992C54.399 30.9992 57.9781 34.5758 57.9781 38.9717C57.9781 43.3676 54.3992 46.9496 50 46.9496ZM38.5861 12.0564C38.4375 12.5138 38.583 13.0156 38.9533 13.3224L44.1779 17.6541L42.4961 24.2367C42.377 24.7027 42.5543 25.1939 42.9434 25.4769C43.3324 25.7594 43.8547 25.7764 44.2611 25.5189L50.0002 21.8857L55.7393 25.5189C55.9315 25.6406 56.1494 25.7012 56.367 25.7012C56.6098 25.7012 56.8518 25.626 57.057 25.4771C57.4461 25.1943 57.6235 24.7029 57.5043 24.2369L55.8225 17.6543L61.0471 13.3226C61.4174 13.0158 61.5629 12.5138 61.4143 12.0566C61.2656 11.599 60.8529 11.2787 60.3731 11.2478L53.5963 10.8137L51.0912 4.50096C50.9137 4.05389 50.4813 3.76014 50.0002 3.76014C49.5192 3.76014 49.0867 4.05389 48.9092 4.50096L46.4041 10.8137L39.6276 11.2478C39.1475 11.2785 38.735 11.599 38.5863 12.0566L38.5861 12.0564ZM47.2959 13.1088C47.7488 13.0799 48.1444 12.7924 48.3117 12.3705L50.0002 8.116L51.6885 12.3705C51.8559 12.7924 52.2516 13.0799 52.7045 13.1088L57.274 13.4015L53.7524 16.3213C53.4029 16.6107 53.252 17.0758 53.3643 17.5152L54.4986 21.9551L50.6281 19.5049C50.4365 19.3834 50.2184 19.3226 50.0004 19.3226C49.7824 19.3226 49.5643 19.3834 49.3727 19.5049L45.5024 21.9551L46.6367 17.5152C46.749 17.0758 46.5981 16.6107 46.2486 16.3213L42.727 13.4015L47.2965 13.1088H47.2959ZM60.8537 29.7808L59.3811 27.2287C59.057 26.6674 59.2496 25.9496 59.8111 25.6256C60.3725 25.3017 61.0902 25.4939 61.4143 26.0556L62.8869 28.6078C63.2109 29.1691 63.0184 29.8869 62.4568 30.2109C62.2721 30.3176 62.0703 30.3683 61.8713 30.3683C61.4654 30.3683 61.0709 30.1578 60.8535 29.7808H60.8537ZM64.0594 21.3771C64.3832 20.816 65.1012 20.623 65.6625 20.9472L68.2149 22.4201C68.7764 22.7441 68.9688 23.4619 68.6449 24.0234C68.4276 24.4 68.033 24.6107 67.6274 24.6107C67.4281 24.6107 67.2266 24.5599 67.0418 24.4533L64.4895 22.9805C63.9279 22.6564 63.7356 21.9387 64.0594 21.3771ZM59.3811 3.92088L60.8537 1.36893C61.1777 0.807402 61.8955 0.615214 62.4568 0.938847C63.0184 1.26287 63.2108 1.98064 62.8869 2.54217L61.4143 5.09412C61.1969 5.47088 60.8024 5.68162 60.3967 5.68162C60.1977 5.68162 59.9959 5.63084 59.8111 5.5242C59.2496 5.20018 59.0572 4.4824 59.3811 3.92088ZM66.7867 14.4012H69.7375C70.3858 14.4012 70.9111 14.9265 70.9111 15.575C70.9111 16.2234 70.3858 16.7488 69.7375 16.7488H66.7867C66.1385 16.7488 65.6131 16.2234 65.6131 15.575C65.6131 14.9265 66.1385 14.4012 66.7867 14.4012ZM64.0604 9.7742C63.7354 9.21326 63.9268 8.49529 64.4877 8.17029L67.0401 6.69197C67.601 6.36756 68.3192 6.55838 68.644 7.11932C68.9688 7.68025 68.7776 8.39822 68.2166 8.72322L65.6643 10.2015C65.4791 10.3088 65.2768 10.3599 65.077 10.3599C64.6719 10.3599 64.2779 10.15 64.0602 9.7742H64.0604ZM35.9412 21.3771C36.2652 21.9387 36.0727 22.6564 35.5113 22.9805L32.9592 24.4533C32.7744 24.5599 32.5727 24.6107 32.3735 24.6107C31.9678 24.6107 31.5733 24.4002 31.3559 24.0234C31.0319 23.4619 31.2244 22.7441 31.7858 22.4201L34.3379 20.9472C34.8994 20.6234 35.617 20.8156 35.9412 21.3771ZM37.1135 28.6078L38.5863 26.0556C38.9102 25.4945 39.6279 25.3015 40.1895 25.6258C40.751 25.9498 40.9434 26.6676 40.6195 27.2291L39.1467 29.7812C38.9293 30.1578 38.5348 30.3685 38.1289 30.3685C37.9299 30.3685 37.7283 30.3178 37.5434 30.2111C36.9818 29.8871 36.7897 29.1693 37.1135 28.6078ZM31.3567 7.11932C31.6815 6.55857 32.3996 6.36717 32.9606 6.69197L35.5127 8.17029C36.0736 8.49529 36.2651 9.21346 35.9401 9.7742C35.7225 10.15 35.3283 10.3599 34.9233 10.3599C34.7236 10.3599 34.5213 10.3088 34.3361 10.2015L31.784 8.72322C31.2231 8.39822 31.0317 7.68006 31.3567 7.11932ZM37.1135 2.54197C36.7895 1.98045 36.982 1.26268 37.5436 0.938652C38.1049 0.614824 38.8229 0.807011 39.1467 1.36853L40.6195 3.92068C40.9436 4.48221 40.751 5.19998 40.1895 5.524C40.0047 5.63064 39.8029 5.68143 39.6039 5.68143C39.1983 5.68143 38.8035 5.47088 38.5863 5.09412L37.1135 2.54197ZM29.0947 15.575C29.0947 14.9267 29.6201 14.4012 30.2684 14.4012H33.2139C33.8621 14.4012 34.3875 14.9265 34.3875 15.575C34.3875 16.2234 33.8621 16.7488 33.2139 16.7488H30.2684C29.6201 16.7488 29.0947 16.2234 29.0947 15.575ZM79.4098 25.3578C79.4098 24.7096 79.9352 24.184 80.5834 24.184H81.7682V22.9935C81.7682 22.3453 82.2936 21.8197 82.9418 21.8197C83.59 21.8197 84.1154 22.3451 84.1154 22.9935V24.184H85.3059C85.9541 24.184 86.4795 24.7094 86.4795 25.3578C86.4795 26.0062 85.9541 26.5316 85.3059 26.5316H84.1154V27.7162C84.1154 28.3644 83.59 28.89 82.9418 28.89C82.2936 28.89 81.7682 28.3646 81.7682 27.7162V26.5316H80.5834C79.9352 26.5316 79.4098 26.0062 79.4098 25.3578ZM0.781262 8.06717C0.781262 7.41893 1.30665 6.89334 1.9549 6.89334H3.13966V5.70877C3.13966 5.06053 3.66505 4.53494 4.31329 4.53494C4.96154 4.53494 5.48693 5.06033 5.48693 5.70877V6.89334H6.67736C7.3256 6.89334 7.85099 7.41873 7.85099 8.06717C7.85099 8.71561 7.3256 9.241 6.67736 9.241H5.48693V10.4314C5.48693 11.0797 4.96154 11.6053 4.31329 11.6053C3.66505 11.6053 3.13966 11.0799 3.13966 10.4314V9.241H1.9549C1.30665 9.241 0.781262 8.71561 0.781262 8.06717ZM92.1488 8.06717C92.1488 7.41893 92.6742 6.89334 93.3225 6.89334H94.5129V5.70877C94.5129 5.06053 95.0383 4.53494 95.6865 4.53494C96.3348 4.53494 96.8602 5.06033 96.8602 5.70877V6.89334H98.0449C98.6932 6.89334 99.2186 7.41873 99.2186 8.06717C99.2186 8.71561 98.6932 9.241 98.0449 9.241H96.8602V10.4314C96.8602 11.0797 96.3348 11.6053 95.6865 11.6053C95.0383 11.6053 94.5129 11.0799 94.5129 10.4314V9.241H93.3225C92.6742 9.241 92.1488 8.71561 92.1488 8.06717ZM99.2188 42.642C99.2188 43.2902 98.6934 43.8158 98.0451 43.8158H96.8604V45.0062C96.8604 45.6545 96.335 46.1801 95.6867 46.1801C95.0385 46.1801 94.5131 45.6547 94.5131 45.0062V43.8158H93.3227C92.6744 43.8158 92.149 43.2904 92.149 42.642C92.149 41.9935 92.6744 41.4681 93.3227 41.4681H94.5131V40.2836C94.5131 39.6353 95.0385 39.1097 95.6867 39.1097C96.335 39.1097 96.8604 39.6351 96.8604 40.2836V41.4681H98.0451C98.6934 41.4681 99.2188 41.9935 99.2188 42.642ZM0.781262 42.642C0.781262 41.9937 1.30665 41.4681 1.9549 41.4681H3.13966V40.2836C3.13966 39.6353 3.66505 39.1097 4.31329 39.1097C4.96154 39.1097 5.48693 39.6351 5.48693 40.2836V41.4681H6.67736C7.3256 41.4681 7.85099 41.9935 7.85099 42.642C7.85099 43.2904 7.3256 43.8158 6.67736 43.8158H5.48693V45.0062C5.48693 45.6545 4.96154 46.1801 4.31329 46.1801C3.66505 46.1801 3.13966 45.6547 3.13966 45.0062V43.8158H1.9549C1.30665 43.8158 0.781262 43.2904 0.781262 42.642ZM13.5207 25.3574C13.5207 24.7092 14.0461 24.1836 14.6943 24.1836H15.8848V22.9931C15.8848 22.3449 16.4102 21.8193 17.0584 21.8193C17.7067 21.8193 18.232 22.3447 18.232 22.9931V24.1836H19.4223C20.0705 24.1836 20.5959 24.709 20.5959 25.3574C20.5959 26.0058 20.0705 26.5312 19.4223 26.5312H18.232V27.7158C18.232 28.364 17.7067 28.8896 17.0584 28.8896C16.4102 28.8896 15.8848 28.3642 15.8848 27.7158V26.5312H14.6943C14.0461 26.5312 13.5207 26.0058 13.5207 25.3574ZM87.7211 78.3201C89.7647 76.4285 91.0471 73.726 91.0471 70.7283C91.0471 65.0258 86.4051 60.3863 80.6996 60.3863C74.9942 60.3863 70.3576 65.0258 70.3576 70.7283C70.3576 73.7256 71.6391 76.4279 73.6813 78.3195C70.1772 79.2092 67.3387 80.7338 65.3584 82.7344C63.358 80.7187 60.4881 79.2015 57.0219 78.3201C59.0654 76.4285 60.3479 73.726 60.3479 70.7285C60.3479 70.7006 60.3459 70.6732 60.3457 70.6455H65.4469C66.0926 70.6455 66.6172 70.1238 66.6205 69.4779L66.6703 60.2037C66.6703 59.2793 67.0719 58.5056 67.8283 57.9685C74.7166 53.1123 79.385 45.5781 80.6367 37.2972C81.0787 34.3621 79.1488 31.9623 75.9438 31.4615C72.9608 30.9943 69.494 32.3303 68.9445 35.7219C67.4305 45.0508 59.4633 51.8217 50.0002 51.8217C40.5371 51.8217 32.5699 45.0508 31.0561 35.7222C30.5063 32.3281 27.0379 30.9941 24.0541 31.4619C20.8512 31.964 18.9246 34.364 19.3692 37.298C20.6211 45.5808 25.2875 53.1148 32.1711 57.9681C32.9291 58.5033 33.3299 59.2765 33.3299 60.2037V69.4717C33.3299 70.1199 33.8553 70.6455 34.5035 70.6455H39.6545C39.6543 70.6732 39.6524 70.7006 39.6524 70.7285C39.6524 73.7262 40.9348 76.4289 42.9783 78.3203C39.5145 79.2019 36.6461 80.7193 34.6459 82.7357C32.6662 80.7351 29.8274 79.2103 26.3219 78.3203C28.3654 76.4287 29.6479 73.7262 29.6479 70.7285C29.6479 65.026 25.0059 60.3865 19.3004 60.3865C13.5949 60.3865 8.95294 65.026 8.95294 70.7285C8.95294 73.7262 10.2354 76.4289 12.2789 78.3203C5.31212 80.0892 0.980676 84.3683 0.781848 89.8922C0.781262 89.906 0.781067 89.9203 0.781067 89.9344V98.0451C0.781067 98.6933 1.30646 99.2189 1.9547 99.2189H98.0447C98.693 99.2189 99.2184 98.6935 99.2184 98.0451V89.9344C99.2184 89.9203 99.2184 89.9062 99.2176 89.8922C99.019 84.3683 94.6873 80.0892 87.7205 78.3203L87.7211 78.3201ZM72.7049 70.7283C72.7049 66.3201 76.2912 62.7338 80.6996 62.7338C85.108 62.7338 88.6998 66.3199 88.6998 70.7283C88.6998 75.1367 85.111 78.7285 80.6996 78.7285C76.2883 78.7285 72.7049 75.1396 72.7049 70.7283ZM35.6774 68.2978V60.2037C35.6774 58.5056 34.9131 57.0307 33.5246 56.05C27.1606 51.5631 22.8471 44.6004 21.6902 36.9465C21.3143 34.4648 23.6828 33.8961 24.4178 33.7808C26.0152 33.5304 28.4125 34.0836 28.7389 36.0978C29.549 41.0902 32.1194 45.6638 35.9764 48.9763C39.8754 52.325 44.8559 54.1691 50 54.1691C55.1442 54.1691 60.1276 52.325 64.0258 48.9762C67.8813 45.6644 70.451 41.0908 71.2613 36.0976C71.5873 34.0847 73.984 33.5318 75.5809 33.7806C76.1049 33.8627 78.6986 34.4 78.3152 36.9471C77.1588 44.5976 72.8434 51.5603 66.4723 56.0521C65.086 57.0363 64.3227 58.5107 64.3227 60.1974L64.2791 68.298H60.0561C58.959 63.7648 54.8678 60.3865 49.9998 60.3865C45.1318 60.3865 41.0406 63.7646 39.9436 68.298H35.677L35.6774 68.2978ZM42 70.7283C42 70.3463 42.0287 69.9709 42.0809 69.6029C42.0815 69.5978 42.0822 69.593 42.0828 69.5879C42.6385 65.7181 45.9766 62.7338 50.0002 62.7338C54.0238 62.7338 57.3619 65.718 57.9176 69.5879C57.9182 69.593 57.919 69.5978 57.9195 69.6029C57.9717 69.9709 58.0004 70.3463 58.0004 70.7283C58.0004 75.1396 54.4115 78.7285 50.0002 78.7285C45.5889 78.7285 42 75.1396 42 70.7283ZM45.7299 80.15C47.0328 80.743 48.4779 81.076 50.0002 81.076C51.5225 81.076 52.9674 80.743 54.2701 80.1502C58.374 80.8084 61.8018 82.3941 63.8664 84.5726C62.8363 86.1543 62.2528 87.9455 62.1811 89.8908C62.1805 89.9053 62.1803 89.9195 62.1803 89.9342V96.8713H37.8199V89.9342C37.8199 89.9201 37.8199 89.906 37.8192 89.892C37.7492 87.9463 37.1664 86.1547 36.1367 84.5726C38.2104 82.3674 41.569 80.8146 45.7299 80.15ZM11.3004 70.7283C11.3004 66.3201 14.8893 62.7338 19.3006 62.7338C23.7119 62.7338 27.3008 66.3199 27.3008 70.7283C27.3008 75.1367 23.7119 78.7285 19.3006 78.7285C14.8893 78.7285 11.3004 75.1396 11.3004 70.7283ZM3.12872 89.9558C3.35353 84.0949 9.35568 81.0639 15.0274 80.1486C16.3311 80.7424 17.7772 81.0762 19.3006 81.0762C20.824 81.0762 22.2703 80.7426 23.574 80.1486C29.2457 81.0639 35.2479 84.0949 35.4727 89.9558V96.8711H3.12872V89.9558ZM96.8715 96.8711H64.5276V89.9564C64.7576 84.0935 70.759 81.0627 76.4277 80.1482C77.7309 80.7422 79.1766 81.076 80.6994 81.076C82.2223 81.076 83.6692 80.7424 84.9729 80.1484C90.6445 81.0637 96.6467 84.0947 96.8715 89.9557V96.8709V96.8711Z" fill="#F42525" stroke="#F42525" stroke-width="0.5"/>
</g>
<defs>
<clipPath id="clip0_216_70">
<rect width="100" height="100" fill="white"/>
</clipPath>
</defs>
</svg>
