<svg width="40" height="40" viewBox="0 0 40 40" fill="none" xmlns="http://www.w3.org/2000/svg">
<g id="ArrowCircleLeft">
<path id="Vector" d="M20.0002 3.75C16.7863 3.75 13.6445 4.70305 10.9722 6.48862C8.29994 8.27419 6.21713 10.8121 4.98721 13.7814C3.75729 16.7507 3.43548 20.018 4.06249 23.1702C4.6895 26.3224 6.23716 29.2179 8.50977 31.4905C10.7824 33.7631 13.6778 35.3107 16.83 35.9378C19.9822 36.5648 23.2496 36.243 26.2189 35.013C29.1882 33.7831 31.7261 31.7003 33.5116 29.028C35.2972 26.3557 36.2502 23.2139 36.2502 20C36.2457 15.6916 34.5322 11.561 31.4857 8.51454C28.4392 5.46806 24.3086 3.75455 20.0002 3.75ZM26.2502 21.25H16.7674L19.6346 24.1156C19.7508 24.2318 19.8429 24.3696 19.9057 24.5214C19.9686 24.6731 20.0009 24.8358 20.0009 25C20.0009 25.1642 19.9686 25.3269 19.9057 25.4786C19.8429 25.6304 19.7508 25.7682 19.6346 25.8844C19.5185 26.0005 19.3806 26.0926 19.2289 26.1555C19.0771 26.2183 18.9145 26.2507 18.7502 26.2507C18.586 26.2507 18.4234 26.2183 18.2716 26.1555C18.1199 26.0926 17.982 26.0005 17.8659 25.8844L12.8659 20.8844C12.7497 20.7683 12.6575 20.6304 12.5946 20.4787C12.5316 20.3269 12.4993 20.1643 12.4993 20C12.4993 19.8357 12.5316 19.6731 12.5946 19.5213C12.6575 19.3696 12.7497 19.2317 12.8659 19.1156L17.8659 14.1156C18.1004 13.8811 18.4185 13.7493 18.7502 13.7493C19.082 13.7493 19.4001 13.8811 19.6346 14.1156C19.8692 14.3502 20.0009 14.6683 20.0009 15C20.0009 15.3317 19.8692 15.6498 19.6346 15.8844L16.7674 18.75H26.2502C26.5818 18.75 26.8997 18.8817 27.1341 19.1161C27.3686 19.3505 27.5002 19.6685 27.5002 20C27.5002 20.3315 27.3686 20.6495 27.1341 20.8839C26.8997 21.1183 26.5818 21.25 26.2502 21.25Z" fill="#CCCCCC"/>
</g>
</svg>
