<svg width="49" height="49" viewBox="0 0 49 49" fill="none" xmlns="http://www.w3.org/2000/svg">
<g filter="url(#filter0_d_202_6776)">
<circle cx="24.3915" cy="20.3915" r="20.3915" transform="rotate(90 24.3915 20.3915)" fill="white"/>
<path d="M23.6843 29.8483C24.0748 30.2388 24.708 30.2388 25.0985 29.8483L31.4625 23.4843C31.853 23.0938 31.853 22.4606 31.4625 22.0701C31.072 21.6796 30.4388 21.6796 30.0483 22.0701L24.3914 27.727L18.7346 22.0701C18.344 21.6796 17.7109 21.6796 17.3204 22.0701C16.9298 22.4606 16.9298 23.0938 17.3204 23.4843L23.6843 29.8483ZM23.3914 11.6421L23.3914 29.1412L25.3914 29.1412L25.3914 11.6421L23.3914 11.6421Z" fill="#F42525"/>
</g>
<defs>
<filter id="filter0_d_202_6776" x="0" y="0" width="48.783" height="48.7832" filterUnits="userSpaceOnUse" color-interpolation-filters="sRGB">
<feFlood flood-opacity="0" result="BackgroundImageFix"/>
<feColorMatrix in="SourceAlpha" type="matrix" values="0 0 0 0 0 0 0 0 0 0 0 0 0 0 0 0 0 0 127 0" result="hardAlpha"/>
<feOffset dy="4"/>
<feGaussianBlur stdDeviation="2"/>
<feComposite in2="hardAlpha" operator="out"/>
<feColorMatrix type="matrix" values="0 0 0 0 0 0 0 0 0 0 0 0 0 0 0 0 0 0 0.25 0"/>
<feBlend mode="normal" in2="BackgroundImageFix" result="effect1_dropShadow_202_6776"/>
<feBlend mode="normal" in="SourceGraphic" in2="effect1_dropShadow_202_6776" result="shape"/>
</filter>
</defs>
</svg>
