<svg width="24" height="25" viewBox="0 0 24 25" fill="none" xmlns="http://www.w3.org/2000/svg">
<g id="_&#195;&#131;&#226;&#128;&#152;&#195;&#131;&#194;&#171;&#195;&#131;&#194;&#174;&#195;&#131;&#194;&#169;_1" clip-path="url(#clip0_202_6602)">
<path id="Vector" d="M11.2507 0.290039C11.7507 0.290039 12.2506 0.290039 12.7506 0.290039C13.1592 0.343349 13.5702 0.382901 13.976 0.452253C16.2298 0.837371 18.2238 1.77991 19.9316 3.29958C22.0196 5.15762 23.325 7.46557 23.8158 10.2235C23.8934 10.6598 23.9394 11.1018 24 11.5411V13.0412C23.965 13.3268 23.9349 13.6131 23.8941 13.8978C23.5222 16.4981 22.4565 18.7761 20.6003 20.6341C17.5201 23.7173 13.7999 24.865 9.52484 24.0215C6.60696 23.4458 4.2406 21.9011 2.44995 19.532C0.378157 16.7909 -0.375019 13.6929 0.172884 10.3005C0.572935 7.82353 1.68284 5.68841 3.43924 3.89946C5.23667 2.06872 7.4028 0.920103 9.9334 0.474507C10.3698 0.397665 10.8115 0.350768 11.2507 0.290039ZM11.9877 17.205C13.7913 17.205 15.595 17.2052 17.3987 17.2049C18.4139 17.2047 19.0056 16.623 19.0069 15.6128C19.0096 13.395 19.01 11.1772 19.0066 8.95936C19.0051 7.96104 18.4124 7.37757 17.4127 7.37748C13.8054 7.37717 10.198 7.37718 6.59069 7.37747C5.59127 7.37756 4.996 7.96223 4.99459 8.95715C4.99145 11.1828 4.99097 13.4084 4.99484 15.634C4.99655 16.6159 5.59497 17.2045 6.57667 17.2048C8.38034 17.2054 10.184 17.205 11.9877 17.205Z" fill="#E31E24"/>
<path id="Vector_2" d="M12.0016 12.9092C10.3537 11.4488 8.72081 10.0017 7.04834 8.51953H16.9538C15.285 9.99875 13.6543 11.4442 12.0016 12.9092Z" fill="#E31E24"/>
<path id="Vector_3" d="M10.744 13.2988C11.0331 13.5552 11.3001 13.7951 11.5707 14.0309C11.8682 14.2902 12.1308 14.2918 12.4281 14.0344C12.6994 13.7993 12.966 13.5587 13.2584 13.2995C14.4264 14.2095 15.5922 15.1177 16.8049 16.0624H7.20044C8.40212 15.1252 9.56377 14.2193 10.744 13.2988Z" fill="#E31E24"/>
<path id="Vector_4" d="M9.88853 12.54C8.63006 13.5205 7.40058 14.4784 6.13916 15.4613V9.21875C7.39862 10.3344 8.63187 11.4268 9.88853 12.54Z" fill="#E31E24"/>
<path id="Vector_5" d="M17.8657 15.4611C16.6033 14.4777 15.3698 13.5169 14.1152 12.5396C15.364 11.4329 16.5994 10.3381 17.8657 9.21582V15.4611Z" fill="#E31E24"/>
</g>
<defs>
<clipPath id="clip0_202_6602">
<rect width="24" height="24" fill="white" transform="translate(0 0.290039)"/>
</clipPath>
</defs>
</svg>
