<svg width="100" height="100" viewBox="0 0 100 100" fill="none" xmlns="http://www.w3.org/2000/svg">
<g id="man_10217191">
<g id="Group">
<g id="Group_2">
<path id="Vector" d="M46.8182 35.4545V13.9394H41.8182L50.0001 3.03027L58.1819 13.9394H53.1819V35.4545" stroke="#F42525" stroke-width="3" stroke-miterlimit="10" stroke-linecap="round" stroke-linejoin="round"/>
<path id="Vector_2" d="M35.4546 41.5151V40.606C35.4546 35 30.9092 30.4545 25.3031 30.4545V35.4545L14.394 27.2727L25.3031 19.0909V24.0909C33.1819 24.0909 39.8485 29.6969 41.5152 37.1212" stroke="#F42525" stroke-width="3" stroke-miterlimit="10" stroke-linecap="round" stroke-linejoin="round"/>
<path id="Vector_3" d="M58.3334 36.8181C60.0001 29.3939 66.6667 23.7878 74.5455 23.7878V18.7878L85.4546 26.9697L74.5455 35.1515V30.1515C68.9395 30.1515 64.394 34.6969 64.394 40.303V41.2121" stroke="#F42525" stroke-width="3" stroke-miterlimit="10" stroke-linecap="round" stroke-linejoin="round"/>
</g>
<g id="Group_3">
<g id="Group_4">
<path id="Vector_4" d="M39.6971 89.5454V82.5757" stroke="#F42525" stroke-width="3" stroke-miterlimit="10" stroke-linecap="round" stroke-linejoin="round"/>
<path id="Vector_5" d="M60.4547 82.5757V89.5454" stroke="#F42525" stroke-width="3" stroke-miterlimit="10" stroke-linecap="round" stroke-linejoin="round"/>
<path id="Vector_6" d="M68.9396 92.7273C68.9396 95 67.1214 96.9697 64.6971 96.9697H49.3941C47.2729 96.9697 45.6062 95.303 45.6062 93.1818C45.6062 91.0606 47.2729 89.3939 49.3941 89.3939H60.4547" stroke="#F42525" stroke-width="3" stroke-miterlimit="10" stroke-linecap="round" stroke-linejoin="round"/>
<path id="Vector_7" d="M50.7577 89.5454H39.6971" stroke="#F42525" stroke-width="3" stroke-miterlimit="10" stroke-linecap="round" stroke-linejoin="round"/>
<path id="Vector_8" d="M31.2122 92.7272C31.2122 95 33.0304 96.9697 35.4547 96.9697H50.7577" stroke="#F42525" stroke-width="3" stroke-miterlimit="10" stroke-linecap="round" stroke-linejoin="round"/>
<path id="Vector_9" d="M43.9395 64.5454C36.8183 64.5454 31.2122 70.303 31.2122 77.2727V92.7272" stroke="#F42525" stroke-width="3" stroke-miterlimit="10" stroke-linecap="round" stroke-linejoin="round"/>
<path id="Vector_10" d="M68.9395 92.7272V77.2727C68.9395 70.1515 63.1819 64.5454 56.2122 64.5454" stroke="#F42525" stroke-width="3" stroke-miterlimit="10" stroke-linecap="round" stroke-linejoin="round"/>
<path id="Vector_11" d="M46.9698 68.4848L48.1819 71.8181L46.2122 80.909L50.1516 83.9393L54.091 80.909L52.1213 71.8181L53.1819 68.4848" stroke="#F42525" stroke-width="3" stroke-miterlimit="10" stroke-linecap="round" stroke-linejoin="round"/>
<path id="Vector_12" d="M50.1517 60.303C54.9214 60.303 58.7881 56.4364 58.7881 51.6666C58.7881 46.8969 54.9214 43.0303 50.1517 43.0303C45.382 43.0303 41.5154 46.8969 41.5154 51.6666C41.5154 56.4364 45.382 60.303 50.1517 60.303Z" stroke="#F42525" stroke-width="3" stroke-miterlimit="10" stroke-linecap="round" stroke-linejoin="round"/>
</g>
</g>
</g>
</g>
</svg>
