<svg width="24" height="25" viewBox="0 0 24 25" fill="none" xmlns="http://www.w3.org/2000/svg">
<path id="Exclude" fill-rule="evenodd" clip-rule="evenodd" d="M12 24.79C18.6274 24.79 24 19.4175 24 12.79C24 6.16262 18.6274 0.790039 12 0.790039C5.37258 0.790039 0 6.16262 0 12.79C0 19.4175 5.37258 24.79 12 24.79ZM11.7629 19.8986C11.8044 19.9286 11.8459 19.9586 11.8856 19.9902H12.1187C12.1583 19.9587 12.1997 19.9287 12.2411 19.8986C12.3305 19.8339 12.4198 19.7691 12.4912 19.6894C13.3778 18.6994 14.2064 17.6655 14.9583 16.5761C15.74 15.4436 16.4452 14.2702 16.9379 12.9892C17.3056 12.0331 17.5087 11.0563 17.3399 10.0288C17.1229 8.70773 16.487 7.61342 15.4186 6.77257C14.2072 5.81916 12.8076 5.43657 11.2556 5.64577C9.66856 5.8597 8.41276 6.62506 7.52291 7.90211C6.58632 9.24625 6.37759 10.7204 6.82883 12.2817C7.12962 13.3224 7.61535 14.2851 8.1699 15.2161C9.12402 16.818 10.2674 18.2902 11.5132 19.6895C11.5842 19.7693 11.6736 19.8339 11.7629 19.8986ZM14.7163 10.8365C14.6891 12.2841 13.4574 13.4533 11.9856 13.4286C10.4689 13.4032 9.26572 12.2204 9.28781 10.7765C9.31002 9.32436 10.544 8.15311 12.026 8.1776C13.5383 8.20259 14.7433 9.39352 14.7163 10.8365Z" fill="#E31E24"/>
</svg>
