<svg width="37" height="28" viewBox="0 0 37 28" fill="none" xmlns="http://www.w3.org/2000/svg">
<path id="Quotes" d="M8.40954 11.2675C7.99821 11.2675 7.60349 11.3289 7.21061 11.3848C7.33788 10.9663 7.46884 10.5407 7.67911 10.1583C7.88939 9.6028 8.21771 9.12124 8.54419 8.63607C8.81718 8.11122 9.29859 7.75591 9.65274 7.30681C10.0235 6.87034 10.5289 6.57996 10.9291 6.21743C11.322 5.83868 11.8366 5.6493 12.2461 5.38236C12.674 5.14248 13.0466 4.87735 13.4451 4.7511L14.4392 4.3507L15.3135 3.99539L14.419 0.5L13.3178 0.759719C12.9655 0.846292 12.5357 0.947294 12.0469 1.06814C11.5471 1.15832 11.014 1.40541 10.4201 1.63086C9.8335 1.88697 9.15472 2.06012 8.5239 2.47134C7.88939 2.86453 7.15712 3.19279 6.51154 3.71944C5.88625 4.26232 5.13184 4.73307 4.5748 5.42385C3.96611 6.06954 3.36481 6.74769 2.89814 7.51964C2.3577 8.25551 1.99065 9.06353 1.6033 9.86252C1.25284 10.6615 0.970631 11.4786 0.740068 12.2721C0.302919 13.8629 0.107401 15.3743 0.0317758 16.6675C-0.0309375 17.9625 0.0059527 19.0393 0.0834221 19.8184C0.11109 20.1864 0.162736 20.5435 0.199626 20.7906L0.245739 21.0936L0.293696 21.0828C0.621763 22.5813 1.37698 23.9583 2.47199 25.0546C3.56701 26.151 4.95706 26.9217 6.48136 27.2778C8.00566 27.6339 9.60191 27.5608 11.0855 27.0668C12.569 26.5729 13.8793 25.6783 14.8646 24.4867C15.8499 23.295 16.4701 21.8549 16.6534 20.333C16.8367 18.8111 16.5756 17.2695 15.9003 15.8866C15.2251 14.5037 14.1632 13.336 12.8376 12.5186C11.5119 11.7012 9.97674 11.2674 8.40954 11.2675ZM28.6991 11.2675C28.2878 11.2675 27.8931 11.3289 27.5002 11.3848C27.6275 10.9663 27.7584 10.5407 27.9687 10.1583C28.179 9.6028 28.5073 9.12124 28.8338 8.63607C29.1068 8.11122 29.5882 7.75591 29.9423 7.30681C30.3131 6.87034 30.8185 6.57996 31.2187 6.21743C31.6116 5.83868 32.1262 5.6493 32.5357 5.38236C32.9637 5.14248 33.3362 4.87735 33.7347 4.7511L34.7288 4.3507L35.6031 3.99539L34.7086 0.5L33.6074 0.759719C33.2551 0.846292 32.8253 0.947294 32.3365 1.06814C31.8367 1.15832 31.3036 1.40541 30.7097 1.63086C30.125 1.88878 29.4443 2.06012 28.8135 2.47315C28.179 2.86633 27.4467 3.19459 26.8011 3.72124C26.1759 4.26413 25.4215 4.73487 24.8644 5.42385C24.2557 6.06954 23.6544 6.74769 23.1878 7.51964C22.6473 8.25551 22.2803 9.06353 21.8929 9.86252C21.5424 10.6615 21.2602 11.4786 21.0297 12.2721C20.5925 13.8629 20.397 15.3743 20.3214 16.6675C20.2587 17.9625 20.2956 19.0393 20.373 19.8184C20.4007 20.1864 20.4523 20.5435 20.4892 20.7906L20.5353 21.0936L20.5833 21.0828C20.9114 22.5813 21.6666 23.9583 22.7616 25.0546C23.8566 26.151 25.2467 26.9217 26.771 27.2778C28.2953 27.6339 29.8915 27.5608 31.3751 27.0668C32.8586 26.5729 34.1689 25.6783 35.1542 24.4867C36.1395 23.295 36.7597 21.8549 36.943 20.333C37.1263 18.8111 36.8652 17.2695 36.1899 15.8866C35.5147 14.5037 34.4528 13.336 33.1272 12.5186C31.8015 11.7012 30.2663 11.2674 28.6991 11.2675Z" fill="#F42525"/>
</svg>
