<svg width="158" height="158" viewBox="0 0 158 158" fill="none" xmlns="http://www.w3.org/2000/svg">
<g id="Personal data-cuate 1">
<g id="freepik--background-complete--inject-62">
<path id="Vector" d="M143.395 94.5251H99.5717V97.2017H143.395V94.5251Z" fill="#EBEBEB"/>
<path id="Vector_2" d="M139.482 97.1985H103.477V104.58H139.482V97.1985Z" fill="#EBEBEB"/>
<path id="Vector_3" d="M139.486 98.6584L103.477 99.3726V97.1985H139.486V98.6584Z" fill="#C7C7C7"/>
<path id="Vector_4" d="M134.069 103.193H108.897V98.592H134.069V103.193ZM109.213 102.877H133.753V98.908H109.213V102.877Z" fill="#DBDBDB"/>
<path id="Vector_5" d="M125.578 100.27H117.385V101.509H125.578V100.27Z" fill="#DBDBDB"/>
<path id="Vector_6" d="M103.187 147.032H101.995L105.465 104.58H108.505L103.187 147.032Z" fill="#EBEBEB"/>
<path id="Vector_7" d="M108.505 104.583L108.148 107.421H105.234L105.465 104.583H108.505Z" fill="#C7C7C7"/>
<path id="Vector_8" d="M139.776 147.032H140.968L137.501 104.58H134.458L139.776 147.032Z" fill="#EBEBEB"/>
<path id="Vector_9" d="M134.458 104.583L134.815 107.421H137.732L137.501 104.583H134.458Z" fill="#C7C7C7"/>
<path id="Vector_10" d="M135.024 52.456C133.365 53.4541 131.434 53.9015 129.506 53.7341C127.577 53.5668 125.752 52.7932 124.29 51.5244C122.829 50.2556 121.807 48.5567 121.37 46.6712C120.934 44.7856 121.105 42.8103 121.861 41.0283C122.616 39.2464 123.916 37.7493 125.574 36.7517C127.233 35.7541 129.165 35.3071 131.093 35.475C133.021 35.6428 134.846 36.4168 136.307 37.6859C137.769 38.9551 138.79 40.6543 139.226 42.5399C139.665 44.4249 139.495 46.4004 138.74 48.1823C137.984 49.9642 136.683 51.4605 135.024 52.456Z" fill="#EBEBEB"/>
<path id="Vector_11" d="M133.099 43.6081C133.092 44.1591 132.922 44.6957 132.61 45.1501C132.299 45.6045 131.859 45.9563 131.347 46.1609C130.836 46.3656 130.275 46.414 129.736 46.2999C129.197 46.1859 128.703 45.9146 128.318 45.5203C127.933 45.126 127.674 44.6265 127.573 44.0847C127.471 43.543 127.533 42.9835 127.75 42.4768C127.967 41.9701 128.329 41.5391 128.79 41.2382C129.252 40.9373 129.793 40.78 130.344 40.7862C131.083 40.7954 131.789 41.0977 132.305 41.6268C132.822 42.156 133.108 42.8686 133.099 43.6081Z" fill="white"/>
<path id="Vector_12" d="M135.036 51.3058V52.456C133.578 53.3326 131.904 53.7857 130.202 53.7645C128.5 53.7433 126.838 53.2486 125.401 52.336L125.417 51.192C125.425 50.5596 125.557 49.9348 125.806 49.3534C126.055 48.772 126.416 48.2453 126.868 47.8034C127.321 47.3615 127.856 47.013 128.443 46.7779C129.03 46.5428 129.658 46.4256 130.29 46.4331C130.922 46.4405 131.547 46.5725 132.129 46.8214C132.71 47.0703 133.237 47.4313 133.679 47.8838C134.121 48.3363 134.469 48.8714 134.704 49.4585C134.939 50.0457 135.056 50.6734 135.049 51.3058H135.036Z" fill="white"/>
<path id="Vector_13" d="M27.631 67.7283C26.5447 68.3827 25.279 68.6762 24.0156 68.5668C22.7521 68.4575 21.5557 67.9508 20.5979 67.1196C19.6402 66.2884 18.9702 65.1752 18.6841 63.9397C18.398 62.7042 18.5104 61.4098 19.0053 60.2422C19.5002 59.0745 20.3522 58.0936 21.4389 57.44C22.5257 56.7864 23.7916 56.4937 25.055 56.6039C26.3184 56.7141 27.5144 57.2215 28.4716 58.0534C29.4289 58.8852 30.0981 59.9988 30.3834 61.2345C30.6724 62.4689 30.5615 63.7632 30.0668 64.9305C29.572 66.0978 28.7191 67.0776 27.631 67.7283Z" fill="#EBEBEB"/>
<path id="Vector_14" d="M26.3702 61.936C26.3658 62.2972 26.2544 62.649 26.0501 62.9469C25.8458 63.2448 25.5577 63.4754 25.2223 63.6096C24.8869 63.7438 24.5193 63.7755 24.1659 63.7007C23.8124 63.6259 23.4891 63.448 23.2368 63.1895C22.9845 62.931 22.8145 62.6035 22.7483 62.2484C22.6821 61.8933 22.7227 61.5265 22.865 61.1945C23.0073 60.8624 23.2448 60.58 23.5475 60.383C23.8503 60.1859 24.2047 60.0831 24.5659 60.0874C25.05 60.0941 25.5118 60.2924 25.85 60.6389C26.1882 60.9854 26.3753 61.4518 26.3702 61.936Z" fill="white"/>
<path id="Vector_15" d="M27.6406 66.992V67.7441C26.684 68.3198 25.5857 68.6174 24.4693 68.6035C23.3529 68.5895 22.2625 68.2646 21.3206 67.6651V66.9161C21.3306 66.078 21.6732 65.2783 22.2729 64.6928C22.8726 64.1073 23.6804 63.784 24.5185 63.7941C25.3566 63.8041 26.1563 64.1467 26.7418 64.7464C27.3273 65.3461 27.6506 66.1539 27.6406 66.992Z" fill="white"/>
<path id="Vector_16" d="M33.6098 99.7549C33.5875 100.27 33.6001 100.786 33.6477 101.3C33.6288 100.959 33.6256 100.614 33.6193 100.27C33.613 100.099 33.6098 99.9255 33.6098 99.7549Z" fill="#EBEBEB"/>
<path id="Vector_17" d="M27.5078 127.689C28.7382 126.324 29.7585 124.783 30.5351 123.117L30.7279 122.883C36.5518 124.675 38.827 118.576 38.6848 118.566C36.9468 118.431 35.4142 118.386 33.8689 119.284C32.6639 120.025 31.6532 121.044 30.9206 122.254C31.6312 120.565 32.1382 118.798 32.4311 116.99H32.4596C33.8215 116.215 35.3352 115.179 35.904 113.643C36.4728 112.107 35.9924 110.022 35.667 108.448C35.665 108.43 35.6575 108.414 35.6455 108.401C35.6334 108.388 35.6175 108.379 35.6001 108.376C35.5827 108.373 35.5648 108.375 35.5489 108.383C35.5331 108.391 35.5202 108.404 35.5121 108.42C33.2369 110.749 31.4041 113.267 32.251 116.579C31.3915 120.649 29.723 123.872 27.3435 127.2C25.7372 122.403 25.1286 117.328 25.555 112.287C25.6118 111.671 25.6877 111.061 25.773 110.455C25.8053 110.452 25.8366 110.442 25.8646 110.426C27.6506 109.311 29.3276 108.029 30.8732 106.599L31.0692 106.483C33.9953 109.298 37.8031 106.89 40.5492 105.102V105.086C40.5776 105.073 40.6013 105.052 40.6172 105.025C40.6331 104.998 40.6403 104.967 40.6379 104.936C40.6354 104.905 40.6235 104.875 40.6037 104.851C40.5838 104.827 40.5571 104.81 40.527 104.801H40.5018C40.487 104.793 40.471 104.788 40.4544 104.786C38.6563 104.217 37.0036 103.408 35.0824 103.857C34.1087 104.103 33.1907 104.531 32.3774 105.121C34.7813 102.649 36.6867 99.7368 37.9896 96.5443C38.0139 96.5436 38.0377 96.5371 38.0591 96.5254C41.434 94.8063 42.8781 91.9244 42.4831 88.2367L42.54 88.1482C42.5905 88.0661 42.4641 87.9934 42.4041 88.0598C40.2648 90.3824 37.0637 92.2468 38.0306 95.7891C37.0774 97.632 36.0082 99.4125 34.8296 101.12C35.9198 98.1528 35.9387 95.432 34.4914 92.272C34.4985 92.253 34.5003 92.2323 34.4964 92.2123C34.4925 92.1924 34.4832 92.1738 34.4695 92.1588C34.4558 92.1438 34.4382 92.1328 34.4186 92.1272C34.3991 92.1215 34.3783 92.1213 34.3587 92.1267C34.3484 92.1264 34.3382 92.1286 34.3289 92.133C34.3195 92.1374 34.3114 92.1439 34.305 92.152C32.8254 93.9574 31.9481 96.1806 31.796 98.5099C31.698 100.238 32.5133 101.502 33.7299 102.618C31.5386 105.489 28.8733 107.965 25.8488 109.94C26.9043 103.022 29.742 96.6044 32.4216 90.1643C32.4216 90.1643 32.4438 90.1643 32.4532 90.1485C33.8847 88.9477 35.8566 87.9586 36.6687 86.1827C37.5503 84.2551 37.1332 81.7587 36.9215 79.7268C36.9215 79.7268 36.8172 79.6826 36.8172 79.7079C35.2878 81.1394 33.6572 82.732 32.7882 84.6722C32.0424 86.3534 32.0962 88.1482 32.1562 89.9368L32.1372 89.9558C32.1332 89.9603 32.1305 89.9658 32.1293 89.9718C32.1281 89.9777 32.1285 89.9839 32.1304 89.9896C32.1323 89.9954 32.1357 90.0005 32.1403 90.0046C32.1448 90.0086 32.1503 90.0114 32.1562 90.0126V90.2844C31.3788 91.7591 30.6478 93.2558 29.9632 94.7748C30.0769 93.1632 30.2792 91.4789 29.8526 89.9463C29.347 88.0503 26.7968 84.688 26.781 84.688C26.7652 84.688 26.7431 84.688 26.7494 84.707C26.7494 84.7512 26.7115 84.9061 26.7147 84.9187C26.0827 89.0014 24.7744 93.694 29.6219 95.5173C26.228 103.392 24.212 111.864 25.1473 120.096C22.1896 115.372 20.9572 110.256 20.4073 104.719C20.4198 104.714 20.4311 104.706 20.4403 104.697C20.4496 104.687 20.4566 104.675 20.461 104.662C21.21 102.766 22.0031 100.668 21.8514 98.592C21.7061 96.6297 20.6759 94.7653 19.8512 93.0146C19.8421 92.9959 19.828 92.9802 19.8104 92.9691C19.7927 92.9581 19.7724 92.9522 19.7516 92.9522C19.7308 92.9522 19.7105 92.9581 19.6929 92.9691C19.6753 92.9802 19.6611 92.9959 19.6521 93.0146C18.6504 95.2424 17.5349 97.2522 17.6739 99.7802C17.7877 101.828 18.9032 102.94 20.2462 104.375C20.2462 104.375 20.2462 104.391 20.2462 104.4V104.501L20.224 104.596C20.2176 104.616 20.2172 104.637 20.2228 104.658C20.2284 104.678 20.2398 104.696 20.2556 104.71C20.2226 107.687 20.6044 110.654 21.3901 113.526C20.7581 111.946 20.3188 110.401 19.1781 109.061C17.849 107.558 16.3722 106.192 14.7699 104.985C14.7525 104.972 14.7308 104.966 14.7092 104.968C14.6875 104.97 14.6676 104.981 14.6535 104.997C14.6394 105.014 14.6321 105.035 14.6332 105.057C14.6342 105.079 14.6436 105.099 14.6593 105.114L14.694 105.146C14.852 107.124 15.0353 109.62 16.116 111.377C17.2789 113.273 19.4593 113.811 21.5196 114.101H21.5418C22.2747 116.511 23.5258 118.732 25.2074 120.608C25.7578 125.003 27.1905 129.243 29.4196 133.071C29.5018 133.21 29.7356 133.087 29.6724 132.938C28.8408 131.236 28.1178 129.483 27.5078 127.689ZM33.6351 119.818C35.2814 118.712 36.6845 118.93 38.432 118.832C37.484 120.061 36.931 121.135 35.6196 121.954C34.2007 122.836 32.4975 122.709 30.8796 122.681C31.7264 121.66 32.5196 120.57 33.6351 119.818ZM32.4975 116.579C32.5013 116.553 32.4962 116.527 32.4829 116.504C32.4697 116.482 32.4492 116.465 32.4248 116.456C32.2984 114.755 32.2542 113.39 33.2464 111.823C33.9384 110.73 34.719 109.68 35.5058 108.663C35.569 110.088 35.8534 111.532 35.6038 112.938C35.3099 114.62 33.929 115.782 32.4975 116.588V116.579ZM40.0815 90.8469C40.881 90.0569 41.7152 89.3743 42.344 88.4579C42.0881 90.0379 42.2208 91.5547 41.3518 93.002C40.5922 94.1957 39.5559 95.1887 38.3308 95.8966C38.0054 93.8805 38.631 92.272 40.0783 90.8469H40.0815ZM33.6509 101.3C33.6649 101.551 33.6934 101.801 33.7362 102.049C32.9366 100.781 32.5593 99.2917 32.6586 97.7957C32.7914 95.9187 33.8278 94.3576 34.3429 92.5943C34.3429 92.6165 34.3429 92.6417 34.3429 92.6639C33.933 94.2732 33.6947 95.9213 33.6319 97.5808C33.5972 98.3045 33.5972 99.0313 33.6098 99.7549C33.6319 99.006 33.6983 98.2634 33.733 97.5808C33.8262 96.0208 34.0375 94.4701 34.365 92.942C34.4472 94.4651 34.7695 95.9566 34.681 97.4955C34.5536 99.0862 34.2775 100.662 33.8563 102.201L33.7931 102.128C33.728 101.855 33.6794 101.579 33.6477 101.3H33.6509ZM35.2783 96.7498C35.392 98.7058 34.5704 100.494 33.9258 102.296L33.8879 102.248C34.3114 100.742 34.6032 99.2011 34.76 97.644C34.8175 96.0208 34.6957 94.3962 34.3966 92.7998L34.4156 92.7176C34.7095 94.0416 35.193 95.391 35.2751 96.7498H35.2783ZM32.4722 96.9014C32.8451 95.3783 33.5213 94.1175 34.2292 92.7745C33.5972 94.563 32.586 96.1841 32.548 98.1465C32.5156 99.3889 32.8191 100.617 33.4265 101.701C32.3205 100.273 31.9571 99.0123 32.469 96.9014H32.4722ZM35.2151 104.28C36.9373 103.879 38.4256 104.628 40.0499 105.007C38.7006 105.901 37.326 106.963 35.7238 107.254C34.1217 107.544 32.725 107.061 31.3346 106.328C32.5891 105.544 33.7204 104.618 35.2151 104.28ZM33.3191 84.5522C34.1028 82.8173 35.2909 81.4806 36.5391 80.1092C34.6864 82.6038 33.3451 85.44 32.5923 88.4548C32.7345 87.1434 32.7503 85.8414 33.3317 84.5458L33.3191 84.5522ZM32.4343 89.6082C32.4659 89.4502 32.4912 89.2921 32.5133 89.1373C33.306 85.9445 34.6815 82.9256 36.5707 80.2324C34.9975 83.2059 33.6527 86.2948 32.548 89.4723L32.4343 89.6082ZM32.5828 89.4375C33.7741 86.2114 35.1596 83.0604 36.7319 80.0018C36.4159 81.7271 36.3116 83.5536 35.6606 85.1873C35.0097 86.821 33.7457 88.1103 32.5954 89.428L32.5828 89.4375ZM35.708 85.358C36.4159 83.6737 36.5865 81.6924 36.8204 79.888C36.8204 81.7113 36.9088 84.293 36.1884 85.9552C35.4995 87.5352 33.9163 88.499 32.6112 89.5544C33.7583 88.2715 35.035 86.9443 35.708 85.358ZM26.86 85.083C26.86 85.0578 26.86 85.0293 26.86 85.004C27.6406 86.543 28.6802 87.848 29.2395 89.5766C29.7546 91.1566 29.7198 93.1505 29.6788 94.8822C29.6257 93.9121 29.4979 92.9475 29.2964 91.9971H29.2774C29.4386 93.0178 29.5302 94.0353 29.5934 95.0623C28.8824 93.4602 28.0134 91.9276 27.5363 90.2275C27.0878 88.6303 26.8602 86.9791 26.86 85.32C27.6722 87.3993 28.914 89.2321 29.2016 91.52C28.9646 89.2732 27.8554 87.0896 26.86 85.083ZM26.958 87.6963C27.0641 88.5605 27.2278 89.4167 27.4478 90.2591C27.9796 91.9948 28.7002 93.667 29.5966 95.2456C28.2647 94.0999 27.3116 92.5772 26.8632 90.8785C26.4808 89.2985 26.6294 87.6426 26.7494 86.0184C26.8032 86.584 26.8948 87.1465 26.9706 87.6963H26.958ZM26.3829 89.9273C26.3784 89.1876 26.426 88.4484 26.5251 87.7153C26.4423 88.9059 26.5696 90.1017 26.9011 91.2482C27.3838 92.833 28.325 94.2394 29.6061 95.2898C29.6061 95.3246 29.6061 95.3594 29.6061 95.3941C27.5868 94.0574 26.4524 92.4332 26.3955 89.9273H26.3829ZM18.1195 99.4073C18.0879 97.426 19.7216 93.5392 19.7216 93.5392C19.8227 93.5961 21.2732 97.5334 21.3774 98.3361C21.6239 100.267 20.9003 102.444 20.2936 104.29C19.472 102.529 18.1637 101.553 18.1321 99.3947L18.1195 99.4073ZM15.9454 110.151C15.3482 108.571 15.187 106.871 14.792 105.247C16.1982 106.536 17.6708 107.775 18.919 109.219C20.104 110.594 20.499 112.24 21.349 113.763C19.0264 113.273 16.8902 112.597 15.958 110.154L15.9454 110.151Z" fill="#EBEBEB"/>
<path id="Vector_18" d="M40.8715 92.6196C41.5004 91.3227 41.9755 89.9567 42.2872 88.5495L42.3851 88.4105C42.3865 88.4067 42.3866 88.4026 42.3855 88.3988C42.3844 88.395 42.3821 88.3916 42.3789 88.3891C42.3758 88.3867 42.3719 88.3853 42.3679 88.3851C42.3639 88.385 42.36 88.3861 42.3567 88.3884L42.303 88.4484C42.3 88.4445 42.2962 88.4413 42.2918 88.4391C42.2874 88.4369 42.2826 88.4358 42.2777 88.4358C42.2728 88.4358 42.268 88.4369 42.2636 88.4391C42.2592 88.4413 42.2554 88.4445 42.2524 88.4484C42.2495 88.4455 42.2455 88.4439 42.2414 88.4439C42.2372 88.4439 42.2333 88.4455 42.2303 88.4484L42.0913 88.6854C40.2363 90.7615 38.6469 93.1094 38.2108 95.8807L38.0623 96.0356C38.0623 96.0356 38.1476 95.9439 38.1918 95.8965C38.1918 95.9945 38.1602 96.0893 38.1476 96.1873C38.1476 96.1873 38.1665 96.2062 38.1697 96.1873C38.1697 96.0798 38.2013 95.9724 38.2203 95.8713L38.3182 95.767C38.2961 95.8302 38.274 95.8965 38.255 95.9597C38.2361 96.0229 38.2929 96.004 38.3056 95.9597L38.4541 95.6121C39.3673 94.6989 40.2774 93.8014 40.8715 92.6196ZM42.1734 88.7075C41.8381 90.0413 41.3778 91.3405 40.7988 92.588C40.1804 93.7031 39.3998 94.7201 38.4825 95.6058C39.4843 93.2737 40.8652 91.1344 42.0502 88.8876L42.1734 88.7075ZM38.2361 95.8554C38.4485 94.4733 38.9468 93.1506 39.6991 91.9718C40.3059 91.0428 41.0327 90.2022 41.7089 89.3269C41.118 90.3412 40.5555 91.3714 39.9867 92.3953C39.38 93.4791 38.7227 94.5598 38.3403 95.7448L38.2361 95.8554Z" fill="#EBEBEB"/>
<path id="Vector_19" d="M40.3974 105.032L40.1478 104.978H40.0909L40.132 104.912L40.0625 104.956C38.6531 104.64 37.2185 104.419 35.7649 104.64C34.2088 104.922 32.7125 105.468 31.3409 106.255L31.1197 106.154L31.3314 106.255H31.2966L31.1924 106.29V106.312C31.1924 106.312 31.1924 106.34 31.1924 106.334L31.3693 106.258C32.7039 106.872 34.1879 107.086 35.6416 106.874C36.4161 106.747 37.1697 106.515 37.8821 106.186C38.5868 105.87 39.4273 105.531 40.0182 105.01L40.3911 105.089C40.4259 105.111 40.448 105.042 40.3974 105.032ZM35.7554 104.716C37.0577 104.567 38.3761 104.645 39.6517 104.947C36.9323 104.896 34.2237 105.301 31.6379 106.144C32.9588 105.56 34.3271 104.934 35.7554 104.719V104.716ZM31.3788 106.261H31.3978C34.1573 105.393 37.0369 104.966 39.9298 104.997H39.9677C37.386 106.745 34.2923 107.516 31.3788 106.261Z" fill="#EBEBEB"/>
<path id="Vector_20" d="M32.548 116.557V116.541V116.585C32.548 116.585 32.567 116.604 32.5701 116.585C32.5733 116.566 32.5701 116.534 32.5701 116.506C33.5181 115.517 34.4219 114.443 34.9054 113.153C35.4299 111.757 35.471 110.256 35.4584 108.783L35.5279 108.682C35.5279 108.666 35.5279 108.65 35.5058 108.663L35.4584 108.726V108.676C35.4584 108.701 35.4584 108.726 35.4584 108.748C35.4584 108.77 35.3889 108.84 35.3573 108.887L35.471 108.612C35.471 108.612 35.471 108.59 35.4552 108.612C35.3699 108.767 35.2909 108.928 35.2151 109.083C33.5908 111.279 32.4279 113.757 32.4785 116.553L32.2794 116.768C32.2605 116.794 32.2794 116.828 32.3142 116.803L32.4817 116.632C32.4817 116.699 32.4817 116.762 32.4817 116.828C32.4817 116.837 32.4851 116.846 32.4914 116.852C32.4976 116.858 32.506 116.862 32.5148 116.862C32.5236 116.862 32.5321 116.858 32.5383 116.852C32.5445 116.846 32.548 116.837 32.548 116.828C32.548 116.737 32.548 116.645 32.548 116.557ZM33.2717 112.584C33.7355 111.443 34.3406 110.365 35.0729 109.374C34.6652 110.249 34.3271 111.15 33.9858 112.057C33.9858 112.057 33.9858 112.057 34.0016 112.057C34.3903 111.049 34.8453 110.072 35.2656 109.08L35.4457 108.818C35.3794 110.177 35.332 111.573 34.9117 112.875C34.4598 114.262 33.5592 115.343 32.6017 116.399C32.8292 115.268 33.1646 114.163 33.6035 113.096C33.1432 114.168 32.8 115.285 32.5796 116.43L32.5449 116.471C32.5736 115.144 32.8213 113.831 33.278 112.584H33.2717Z" fill="#EBEBEB"/>
<path id="Vector_21" d="M38.511 118.816C38.5142 118.814 38.5169 118.811 38.5187 118.807C38.5206 118.803 38.5215 118.799 38.5215 118.795C38.5215 118.791 38.5206 118.787 38.5187 118.784C38.5169 118.78 38.5142 118.777 38.511 118.775L38.5647 118.712C38.5647 118.693 38.5647 118.667 38.5363 118.686C38.5078 118.705 38.4731 118.756 38.4415 118.791L38.2898 118.838C36.955 118.988 35.6472 119.321 34.403 119.827C33.1579 120.383 32.191 121.271 31.243 122.235C31.0976 122.339 30.9554 122.447 30.8132 122.551C30.8132 122.551 30.8132 122.583 30.8132 122.573L31.0439 122.425L30.9554 122.516L31.0976 122.384C33.2887 120.976 35.6354 119.826 38.0907 118.958L38.2803 118.923C37.3782 119.917 36.3179 120.754 35.1424 121.401C33.692 122.185 32.27 122.469 30.6552 122.665V122.684C33.5814 122.775 36.5012 121.104 38.3625 118.917L38.4667 118.898C38.4776 118.904 38.4904 118.905 38.5023 118.902C38.5141 118.898 38.5241 118.89 38.5299 118.879C38.5358 118.868 38.5371 118.855 38.5335 118.844C38.53 118.832 38.5219 118.822 38.511 118.816ZM31.4231 122.106C32.3427 121.252 33.3191 120.421 34.4567 119.894C35.4613 119.482 36.5116 119.192 37.5851 119.031C35.393 119.752 33.3174 120.788 31.4231 122.106Z" fill="#EBEBEB"/>
<path id="Vector_22" d="M20.3884 104.406C20.3884 104.378 20.3884 104.353 20.3884 104.327C20.3994 104.321 20.4077 104.311 20.4117 104.298C20.4158 104.286 20.4153 104.273 20.4105 104.261L20.3789 104.192C20.2967 102.507 19.9997 100.851 19.8354 99.1735C19.6616 97.3818 19.7185 95.5869 19.7185 93.8015C19.7564 93.6372 19.7943 93.4855 19.8291 93.3085C19.8309 93.2976 19.8286 93.2864 19.8225 93.2771C19.8165 93.2678 19.8072 93.2612 19.7965 93.2584C19.7858 93.2556 19.7745 93.2569 19.7647 93.2621C19.7549 93.2673 19.7474 93.276 19.7437 93.2864C19.4274 94.3136 19.1752 95.3595 18.9885 96.418C18.7841 97.2844 18.6875 98.1728 18.7009 99.0629C18.7989 100.851 19.5289 102.735 20.3283 104.321C20.3314 104.327 20.3358 104.333 20.3413 104.337C20.3468 104.342 20.3531 104.345 20.3599 104.346C20.3599 104.369 20.3599 104.394 20.3599 104.419C20.3599 104.444 20.3884 104.422 20.3884 104.406ZM18.8305 98.7722C18.8305 97.1226 19.3203 95.4921 19.6932 93.8868C19.5883 95.6482 19.6084 97.4149 19.7532 99.1735C19.9112 100.826 20.243 102.46 20.3441 104.116C19.6173 102.46 18.8368 100.602 18.8305 98.7722Z" fill="#EBEBEB"/>
<path id="Vector_23" d="M20.4421 104.457C20.5148 102.656 21.2163 101.003 21.0551 99.1766C20.9408 97.6101 20.5737 96.0723 19.9681 94.623C19.9681 94.623 19.9428 94.623 19.9491 94.623C20.5671 96.1982 20.9184 97.8652 20.9888 99.5558C21.0741 101.218 20.4642 102.798 20.401 104.451C20.401 104.485 20.4421 104.482 20.4421 104.457Z" fill="#EBEBEB"/>
<path id="Vector_24" d="M21.9209 113.678C21.7342 113.663 21.5485 113.638 21.3648 113.602L21.2257 113.504C20.2967 112.148 19.4877 110.73 18.4449 109.453C17.2852 108.031 16.1476 106.552 14.8583 105.244C14.8583 105.244 14.8331 105.244 14.8425 105.26C15.9612 106.609 17.0988 107.942 18.2111 109.295C19.276 110.581 20.0755 112.022 21.0361 113.371C19.7044 112.437 18.5118 111.319 17.4938 110.05C16.3435 108.59 15.5978 106.957 14.8362 105.275C14.8362 105.275 14.8141 105.275 14.8173 105.275C14.8362 105.354 14.8647 105.433 14.8868 105.509C14.8394 105.383 14.7857 105.253 14.7288 105.13C14.7244 105.123 14.7178 105.118 14.7102 105.116C14.7025 105.114 14.6943 105.114 14.6869 105.117C14.6795 105.12 14.6733 105.125 14.6694 105.132C14.6655 105.139 14.6642 105.147 14.6656 105.155C15.266 106.982 15.3955 109.127 16.5963 110.695C17.7461 112.224 19.4069 113.289 21.2763 113.697L21.349 113.798C21.3743 113.833 21.4343 113.798 21.409 113.763L21.3743 113.713L21.4596 113.728L21.5165 113.763C21.5354 113.763 21.5512 113.763 21.5544 113.741C21.6745 113.76 21.7977 113.776 21.9209 113.785C21.9936 113.798 21.9936 113.684 21.9209 113.678ZM21.172 113.567C20.1784 113.337 19.2399 112.914 18.4103 112.32C17.5806 111.727 16.8762 110.976 16.3372 110.11C15.6231 108.909 15.4903 107.503 15.1111 106.186C16.195 109.131 18.5871 111.839 21.1531 113.536C21.1604 113.546 21.1667 113.556 21.172 113.567Z" fill="#EBEBEB"/>
<path id="Vector_25" d="M34.7094 127.623C34.7094 127.623 34.5262 129.266 34.2702 131.605C33.6635 137.116 32.6491 146.457 32.6491 147.032H23.5072C23.5072 146.463 22.496 137.116 21.8925 131.605C21.6365 129.266 21.4532 127.623 21.4532 127.623H34.7094Z" fill="#DBDBDB"/>
<path id="Vector_26" d="M34.7094 127.623C34.7094 127.623 34.5262 129.266 34.2702 131.605H21.8925C21.6365 129.266 21.4532 127.623 21.4532 127.623H34.7094Z" fill="#C7C7C7"/>
<path id="Vector_27" d="M35.5437 126.963H20.619V129.87H35.5437V126.963Z" fill="#DBDBDB"/>
</g>
<g id="freepik--Floor--inject-62">
<path id="Vector_28" d="M14.6086 147.032L30.7057 146.956L46.8027 146.927L79 146.874L111.197 146.927L127.294 146.956L143.391 147.032L127.294 147.111L111.197 147.136L79 147.19L46.8027 147.136L30.7057 147.111L14.6086 147.032Z" fill="#263238"/>
</g>
<g id="freepik--Income--inject-62">
<path id="Vector_29" d="M105.193 130.796H127.73V108.258H105.193V130.796Z" fill="#F42525"/>
<path id="Vector_30" d="M105.193 108.258H103.632V130.796H105.193V108.258Z" fill="#F42525"/>
<path id="Vector_31" opacity="0.1" d="M105.193 108.258H103.632V130.796H105.193V108.258Z" fill="black"/>
<path id="Vector_32" d="M116.462 112.224C106.192 112.224 106.176 126.83 116.462 126.83C126.748 126.83 126.751 112.224 116.462 112.224Z" fill="white"/>
<path id="Vector_33" d="M122.709 120.895C122.159 123.407 120.077 125.588 116.462 125.588C107.93 125.588 107.93 113.466 116.462 113.466H116.629C108.606 113.615 108.647 125.092 116.787 125.092C120.105 125.095 122.083 123.174 122.709 120.895Z" fill="#F42525"/>
<path id="Vector_34" d="M116.525 115.065C116.592 115.063 116.657 115.088 116.707 115.133C116.756 115.178 116.786 115.241 116.79 115.308V115.716C117.504 115.762 118.189 116.008 118.769 116.427C118.87 116.5 118.923 116.56 118.923 116.661C118.919 116.732 118.886 116.799 118.832 116.846C118.778 116.894 118.707 116.918 118.636 116.914C118.562 116.916 118.49 116.892 118.434 116.844C117.95 116.474 117.374 116.246 116.768 116.184V119.028C118.456 119.344 119.167 119.931 119.167 120.924C119.167 122.001 118.181 122.766 116.79 122.82V123.61C116.783 123.675 116.752 123.736 116.703 123.781C116.653 123.825 116.59 123.849 116.523 123.849C116.457 123.849 116.393 123.825 116.344 123.781C116.295 123.736 116.264 123.675 116.256 123.61V122.807C115.34 122.75 114.465 122.405 113.757 121.821C113.72 121.799 113.69 121.768 113.669 121.731C113.647 121.694 113.635 121.652 113.634 121.609C113.64 121.54 113.672 121.475 113.723 121.428C113.775 121.38 113.842 121.354 113.912 121.353C113.986 121.352 114.058 121.377 114.114 121.426C114.717 121.959 115.476 122.284 116.279 122.352V119.448C114.613 119.11 113.924 118.55 113.924 117.536C113.924 116.522 114.901 115.725 116.256 115.694V115.308C116.26 115.241 116.291 115.177 116.341 115.132C116.391 115.086 116.457 115.062 116.525 115.065ZM116.288 118.93V116.152C115.21 116.174 114.499 116.762 114.499 117.495C114.499 118.228 114.847 118.614 116.288 118.93ZM116.778 119.562V122.368C117.89 122.346 118.611 121.758 118.611 120.984C118.601 120.27 118.212 119.843 116.768 119.549L116.778 119.562Z" fill="#F42525"/>
<path id="Vector_35" d="M115.77 106.587H115.454V107.061H115.77V106.587Z" fill="#F42525"/>
<path id="Vector_36" d="M115.77 105.67H115.454V104.751H115.77V105.67ZM115.77 103.834H115.454V102.915H115.77V103.834Z" fill="#F42525"/>
<path id="Vector_37" d="M115.77 101.998H115.454V101.641L115.112 101.537L115.204 101.234L115.77 101.408V101.998Z" fill="#F42525"/>
<path id="Vector_38" d="M114.256 101.275L113.397 101.012L113.488 100.696L114.348 100.956L114.256 101.275ZM112.537 100.753L111.681 100.491L111.772 100.175L112.632 100.437L112.537 100.753ZM110.821 100.229L109.965 99.9665L110.057 99.6505L110.913 99.9097L110.821 100.229ZM109.105 99.7074L108.246 99.4451L108.341 99.1291L109.197 99.3914L109.105 99.7074ZM107.389 99.1828L106.53 98.9206L106.622 98.6046L107.481 98.8668L107.389 99.1828ZM105.674 98.6615L104.814 98.3992L104.906 98.0832L105.765 98.3455L105.674 98.6615ZM103.964 98.1369L103.108 97.8778L103.199 97.5618L104.059 97.8241L103.964 98.1369Z" fill="#F42525"/>
<path id="Vector_39" d="M101.877 97.1748L101.785 97.4771L102.238 97.6153L102.33 97.3131L101.877 97.1748Z" fill="#F42525"/>
<path id="Vector_40" d="M102.033 96.7655C101.921 96.7313 101.801 96.7312 101.689 96.7651C101.576 96.7991 101.476 96.8656 101.402 96.9563C101.327 97.0469 101.281 97.1577 101.269 97.2746C101.257 97.3914 101.281 97.5091 101.336 97.6128C101.391 97.7165 101.476 97.8015 101.579 97.8571C101.683 97.9127 101.8 97.9364 101.917 97.9252C102.034 97.914 102.145 97.8684 102.236 97.7941C102.327 97.7199 102.394 97.6204 102.428 97.5081C102.474 97.3572 102.458 97.1945 102.384 97.0554C102.31 96.9164 102.184 96.8121 102.033 96.7655Z" fill="#F42525"/>
</g>
<g id="freepik--health-information--inject-62">
<path id="Vector_41" d="M114.338 88.6886H136.875V66.1515H114.338V88.6886Z" fill="#F42525"/>
<path id="Vector_42" d="M114.338 66.1515H112.777V88.6886H114.338V66.1515Z" fill="#F42525"/>
<path id="Vector_43" opacity="0.1" d="M114.338 66.1515H112.777V88.6886H114.338V66.1515Z" fill="black"/>
<path id="Vector_44" d="M131.81 79.0001C130.151 81.2202 128.035 83.0576 125.604 84.3878C123.174 83.0571 121.058 81.2197 119.401 79.0001C117.214 76.1087 117.321 71.5835 120.447 70.6039C123.904 69.52 125.604 74.7119 125.604 74.7119C125.604 74.7119 127.329 69.4758 130.764 70.6039C133.877 71.6183 133.984 76.1118 131.81 79.0001Z" fill="white"/>
<path id="Vector_45" d="M123.164 82.1063L122.222 78.1816L121.609 79.5656H117.802V79.1232H121.322L122.349 76.8101L123.085 79.869L124.122 73.53L125.038 78.5449L125.765 76.4499L126.909 79.8785L127.162 79.1201H133.412V79.5625H127.481L126.906 81.2752L125.755 77.8245L124.905 80.2798L124.147 76.1212L123.164 82.1063Z" fill="#F42525"/>
<path id="Vector_46" d="M112.49 77.2621H112.016V77.5781H112.49V77.2621Z" fill="#F42525"/>
<path id="Vector_47" d="M111.125 77.5781H110.237V77.2621H111.125V77.5781ZM109.346 77.5781H108.454V77.2621H109.336L109.346 77.5781ZM107.566 77.5781H106.675V77.2621H107.566V77.5781ZM105.784 77.5781H104.893V77.2621H105.784V77.5781ZM104.005 77.5781H103.114V77.2621H104.005V77.5781ZM102.223 77.5781H101.335V77.2621H102.223V77.5781ZM100.444 77.5781H99.54V77.2621H100.431L100.444 77.5781Z" fill="#F42525"/>
<path id="Vector_48" d="M98.6647 77.2621H98.1907V77.5781H98.6647V77.2621Z" fill="#F42525"/>
<path id="Vector_49" d="M98.2191 78.0141C98.5472 78.0141 98.8132 77.7481 98.8132 77.42C98.8132 77.0919 98.5472 76.8259 98.2191 76.8259C97.891 76.8259 97.6251 77.0919 97.6251 77.42C97.6251 77.7481 97.891 78.0141 98.2191 78.0141Z" fill="#F42525"/>
</g>
<g id="freepik--Email--inject-62">
<path id="Vector_50" d="M105.193 46.5815H127.73V24.0444L105.193 24.0444V46.5815Z" fill="#F42525"/>
<path id="Vector_51" d="M105.193 24.0444H103.632V46.5816H105.193V24.0444Z" fill="#F42525"/>
<path id="Vector_52" opacity="0.1" d="M105.193 24.0444H103.632V46.5816H105.193V24.0444Z" fill="black"/>
<g id="freepik--TEfYE6--inject-62">
<path id="Vector_53" d="M122.785 30.5793L122.447 30.8953L117.094 35.9924C117.018 36.0821 116.924 36.1542 116.818 36.2037C116.712 36.2532 116.596 36.2788 116.479 36.2788C116.362 36.2788 116.246 36.2532 116.14 36.2037C116.034 36.1542 115.94 36.0821 115.865 35.9924L110.372 30.8163L110.158 30.6046C110.3 30.5153 110.467 30.4712 110.635 30.4782H114.351L122.106 30.4466C122.34 30.4185 122.578 30.4649 122.785 30.5793Z" fill="white"/>
<path id="Vector_54" d="M122.769 40.0593C122.619 40.1004 122.466 40.1279 122.311 40.1415C120.829 40.1415 119.347 40.1415 117.865 40.1636L110.72 40.1921C110.517 40.2 110.317 40.1496 110.142 40.0467L114.566 35.8218L115.422 36.6276L115.786 36.9689C115.874 37.0606 115.98 37.1336 116.097 37.1834C116.215 37.2333 116.341 37.259 116.468 37.259C116.596 37.259 116.722 37.2333 116.839 37.1834C116.956 37.1336 117.062 37.0606 117.151 36.9689C117.543 36.5991 117.931 36.2231 118.339 35.8313L122.763 40.0056L122.769 40.0593Z" fill="white"/>
<path id="Vector_55" d="M114.035 35.3098C112.597 36.7097 111.137 38.0685 109.715 39.4747C109.698 39.4064 109.687 39.3366 109.684 39.2662C109.671 36.656 109.66 34.0459 109.652 31.4357C109.656 31.353 109.665 31.2706 109.68 31.1892L114.035 35.3098Z" fill="white"/>
<path id="Vector_56" d="M123.24 39.4305C122.703 38.9164 122.162 38.4024 121.619 37.8884L118.99 35.4078L118.885 35.3256C120.333 33.9163 121.796 32.5543 123.208 31.1576C123.268 31.3093 123.303 39.2219 123.24 39.4305Z" fill="white"/>
</g>
<path id="Vector_57" d="M116.206 47.9341H115.89V48.4081H116.206V47.9341Z" fill="#F42525"/>
<path id="Vector_58" d="M116.206 52.08H115.89V51.1636H116.206V52.08ZM116.206 50.244H115.89V49.3245H116.206V50.244Z" fill="#F42525"/>
<path id="Vector_59" d="M115.64 53.7611L115.549 53.4577L115.89 53.3534V52.9995H116.206V53.5904L115.64 53.7611Z" fill="#F42525"/>
<path id="Vector_60" d="M99.9287 58.5453L99.837 58.2293L100.709 57.9639L100.804 58.2799L99.9287 58.5453ZM101.676 58.0144L101.585 57.6984L102.457 57.4298L102.548 57.7458L101.676 58.0144ZM103.42 57.4836L103.329 57.1676L104.201 56.9021L104.293 57.2181L103.42 57.4836ZM105.168 56.9527L105.073 56.6367L105.948 56.3712L106.04 56.6872L105.168 56.9527ZM106.912 56.4186L106.821 56.1184L107.693 55.853L107.784 56.1532L106.912 56.4186ZM108.657 55.8878L108.565 55.5718L109.44 55.3063L109.532 55.6223L108.657 55.8878ZM110.404 55.3569L110.312 55.0409L111.185 54.7754L111.276 55.0914L110.404 55.3569ZM112.148 54.826L112.057 54.51L112.929 54.2446L113.021 54.5606L112.148 54.826ZM113.896 54.292L113.804 53.9918L114.676 53.7263L114.768 54.0265L113.896 54.292Z" fill="#F42525"/>
<path id="Vector_61" d="M98.9638 58.5196L98.5103 58.6575L98.6022 58.9598L99.0557 58.8219L98.9638 58.5196Z" fill="#F42525"/>
<path id="Vector_62" d="M98.5857 59.3859C98.9138 59.3859 99.1797 59.1199 99.1797 58.7918C99.1797 58.4637 98.9138 58.1978 98.5857 58.1978C98.2576 58.1978 97.9916 58.4637 97.9916 58.7918C97.9916 59.1199 98.2576 59.3859 98.5857 59.3859Z" fill="#F42525"/>
</g>
<g id="freepik--Localisation--inject-62">
<path id="Vector_63" d="M51.0939 108.258H28.5568V130.795H51.0939V108.258Z" fill="#F42525"/>
<path id="Vector_64" d="M51.0939 130.795H52.655V108.258H51.0939V130.795Z" fill="#F42525"/>
<path id="Vector_65" opacity="0.1" d="M51.0939 130.795H52.655V108.258H51.0939V130.795Z" fill="black"/>
<g id="freepik--uGJA8C--inject-62">
<path id="Vector_66" d="M44.9763 115.425C43.8766 112.998 41.0705 111.722 38.3719 112.395C36.0809 112.964 33.9795 115.068 34.2418 118.048C34.346 118.907 34.5995 119.741 34.9907 120.513C35.8209 122.21 36.8998 123.773 38.1918 125.152C38.7037 125.727 39.2472 126.274 39.7718 126.839C39.8508 126.77 39.9045 126.732 39.9456 126.688C40.6376 125.945 41.3518 125.228 42.0122 124.457C43.2672 123.061 44.2692 121.457 44.9731 119.717C45.5293 118.276 45.6209 116.847 44.9763 115.425ZM43.292 117.501C43.2807 118.195 43.0622 118.869 42.6645 119.438C42.2668 120.006 41.7082 120.443 41.0605 120.691C40.4127 120.939 39.7055 120.988 39.0298 120.831C38.3542 120.674 37.7409 120.318 37.2689 119.81C36.797 119.302 36.4879 118.664 36.3816 117.978C36.2752 117.293 36.3763 116.591 36.672 115.963C36.9677 115.336 37.4443 114.811 38.0407 114.457C38.637 114.103 39.3257 113.935 40.0182 113.975C40.9134 114.027 41.7539 114.423 42.364 115.08C42.974 115.737 43.3066 116.605 43.292 117.501Z" fill="white"/>
</g>
<path id="Vector_67" d="M39.9834 106.587H39.6674V107.061H39.9834V106.587Z" fill="#F42525"/>
<path id="Vector_68" d="M39.9834 105.67H39.6674V104.751H39.9834V105.67ZM39.9834 103.834H39.6674V102.915H39.9834V103.834Z" fill="#F42525"/>
<path id="Vector_69" d="M39.9834 101.998H39.6674V101.407L40.2298 101.234L40.3246 101.537L39.9834 101.641V101.998Z" fill="#F42525"/>
<path id="Vector_70" d="M41.1968 101.272L41.1052 100.956L41.9773 100.69L42.069 101.006L41.1968 101.272ZM42.9411 100.738L42.8495 100.422L43.7216 100.156L43.8133 100.456L42.9411 100.738ZM44.6886 100.207L44.5938 99.8906L45.4691 99.6252L45.5608 99.9412L44.6886 100.207ZM46.4329 99.6758L46.3413 99.3598L47.2134 99.0943L47.3051 99.4103L46.4329 99.6758ZM48.1772 99.1449L48.0856 98.8289L48.9609 98.5635L49.0526 98.8795L48.1772 99.1449ZM49.9247 98.6108L49.8331 98.3106L50.7052 98.0452L50.7969 98.3612L49.9247 98.6108ZM51.669 98.08L51.5774 97.764L52.4496 97.4985L52.5412 97.8145L51.669 98.08ZM53.4039 97.5491L53.3122 97.2331L54.1844 96.9676L54.276 97.2836L53.4039 97.5491ZM55.1482 97.0182L55.0566 96.7022L55.9287 96.4368L56.0204 96.737L55.1482 97.0182Z" fill="#F42525"/>
<path id="Vector_71" d="M57.2658 96.0522L56.8123 96.1901L56.9042 96.4924L57.3577 96.3545L57.2658 96.0522Z" fill="#F42525"/>
<path id="Vector_72" d="M57.4582 96.7717C57.5708 96.7377 57.6708 96.6712 57.7455 96.5804C57.8203 96.4895 57.8664 96.3786 57.878 96.2616C57.8896 96.1445 57.8662 96.0267 57.8108 95.9229C57.7554 95.8192 57.6705 95.7343 57.5667 95.6788C57.463 95.6234 57.3452 95.6001 57.2281 95.6117C57.1111 95.6233 57.0001 95.6694 56.9093 95.7441C56.8185 95.8188 56.7519 95.9188 56.718 96.0315C56.6841 96.1441 56.6843 96.2642 56.7187 96.3767C56.7408 96.4515 56.7775 96.5213 56.8268 96.5818C56.876 96.6423 56.9368 96.6924 57.0057 96.7292C57.0745 96.7659 57.15 96.7886 57.2277 96.7959C57.3053 96.8032 57.3837 96.795 57.4582 96.7717Z" fill="#F42525"/>
</g>
<g id="freepik--phone-number--inject-62">
<path id="Vector_73" d="M41.949 66.1515H19.4119V88.6886H41.949V66.1515Z" fill="#F42525"/>
<path id="Vector_74" d="M41.949 88.6886H43.51V66.1515H41.949V88.6886Z" fill="#F42525"/>
<path id="Vector_75" opacity="0.1" d="M41.949 88.6886H43.51V66.1515H41.949V88.6886Z" fill="black"/>
<g id="freepik--IaQ7Yo--inject-62">
<path id="Vector_76" d="M35.6006 83.8538C35.3543 84.0767 35.0515 84.2276 34.7252 84.2899C34.5799 84.3247 34.4345 84.3468 34.2892 84.3752H33.5276C33.2748 84.3342 33.022 84.3026 32.7692 84.2488C31.7753 84.0281 30.8347 83.6136 30.001 83.0291C28.0407 81.7121 26.3601 80.0207 25.0556 78.0521C24.4787 77.2293 24.0705 76.3002 23.8548 75.3187C23.8011 75.0596 23.7664 74.7973 23.7253 74.535V73.8019C23.7662 73.5626 23.8221 73.3262 23.8928 73.094C23.9828 72.8761 24.0884 72.6648 24.2088 72.462C24.2688 72.5158 24.3004 72.5379 24.3288 72.5632C25.3716 73.6165 26.4155 74.6593 27.4604 75.6916C27.4892 75.7156 27.5095 75.7481 27.5186 75.7844C27.5277 75.8208 27.525 75.8591 27.511 75.8938C27.4248 76.1551 27.4108 76.4348 27.4703 76.7034C27.5298 76.972 27.6607 77.2196 27.8491 77.4201C28.7338 78.4293 29.6838 79.3794 30.6931 80.2641C30.895 80.4468 31.142 80.5723 31.4086 80.6279C31.6752 80.6834 31.9518 80.6669 32.2099 80.5801C32.2394 80.5655 32.2727 80.5608 32.3051 80.5664C32.3375 80.5721 32.3672 80.588 32.39 80.6117L35.55 83.7938L35.6006 83.8538Z" fill="white"/>
<path id="Vector_77" d="M37.4334 82.0273C37.0668 82.398 36.6992 82.7656 36.3305 83.1301L36.2515 83.2028L33.0441 79.9985C33.1168 79.929 33.2053 79.8532 33.2874 79.7742C33.6034 79.4582 33.9194 79.1422 34.2354 78.8262C34.2828 78.7627 34.3443 78.7112 34.4151 78.6758C34.4859 78.6403 34.5639 78.6218 34.6431 78.6218C34.7222 78.6218 34.8003 78.6403 34.8711 78.6758C34.9419 78.7112 35.0034 78.7627 35.0507 78.8262C35.8513 79.6225 36.6486 80.4199 37.4428 81.2183C37.5057 81.2657 37.5565 81.3273 37.5912 81.3979C37.6258 81.4686 37.6434 81.5465 37.6425 81.6252C37.6416 81.7039 37.6222 81.7813 37.5858 81.8511C37.5495 81.921 37.4973 81.9813 37.4334 82.0273Z" fill="white"/>
<path id="Vector_78" d="M29.2932 73.8366C28.8856 74.2347 28.4684 74.6234 28.0576 75.0121L24.8976 71.8521C24.9168 71.8262 24.9379 71.8019 24.9608 71.7794C25.3337 71.4044 25.7077 71.0294 26.0826 70.6545C26.1294 70.5953 26.1889 70.5474 26.2568 70.5146C26.3246 70.4817 26.3991 70.4646 26.4745 70.4646C26.5499 70.4646 26.6243 70.4817 26.6922 70.5146C26.7601 70.5474 26.8196 70.5953 26.8663 70.6545C27.6721 71.4603 28.4811 72.2661 29.2837 73.0719C29.3411 73.1174 29.3876 73.1751 29.4199 73.2409C29.4522 73.3066 29.4694 73.3787 29.4703 73.452C29.4712 73.5252 29.4558 73.5977 29.4252 73.6643C29.3945 73.7308 29.3494 73.7897 29.2932 73.8366Z" fill="white"/>
</g>
<path id="Vector_79" d="M44.3442 77.2621H43.8702V77.5781H44.3442V77.2621Z" fill="#F42525"/>
<path id="Vector_80" d="M48.0004 77.5781H47.084V77.2621H47.9972L48.0004 77.5781ZM46.1739 77.5781H45.2575V77.2621H46.1739V77.5781Z" fill="#F42525"/>
<path id="Vector_81" d="M49.3908 77.2621H48.9168V77.5781H49.3908V77.2621Z" fill="#F42525"/>
<path id="Vector_82" d="M49.3592 78.0141C49.4767 78.0141 49.5916 77.9792 49.6893 77.914C49.787 77.8487 49.8631 77.7559 49.9081 77.6474C49.953 77.5388 49.9648 77.4193 49.9419 77.3041C49.919 77.1889 49.8624 77.083 49.7793 76.9999C49.6962 76.9168 49.5904 76.8603 49.4751 76.8373C49.3599 76.8144 49.2404 76.8262 49.1319 76.8711C49.0233 76.9161 48.9305 76.9923 48.8653 77.09C48.8 77.1876 48.7651 77.3025 48.7651 77.42C48.7651 77.5776 48.8277 77.7287 48.9391 77.8401C49.0505 77.9515 49.2017 78.0141 49.3592 78.0141Z" fill="#F42525"/>
</g>
<g id="freepik--online-identifier--inject-62">
<path id="Vector_83" d="M51.0941 24.0444H28.5569V46.5816H51.0941V24.0444Z" fill="#F42525"/>
<path id="Vector_84" d="M51.094 46.5815H52.6551V24.0444H51.094V46.5815Z" fill="#F42525"/>
<path id="Vector_85" opacity="0.1" d="M51.094 46.5815H52.6551V24.0444H51.094V46.5815Z" fill="black"/>
<path id="Vector_86" d="M43.7123 32.232C43.7035 32.9769 43.474 33.7025 43.0529 34.317C42.6317 34.9315 42.0378 35.4073 41.3462 35.6842C40.6547 35.9612 39.8965 36.0269 39.1676 35.8729C38.4387 35.719 37.7718 35.3524 37.2513 34.8195C36.7307 34.2866 36.3799 33.6113 36.2432 32.879C36.1064 32.1467 36.1899 31.3903 36.483 30.7054C36.7761 30.0205 37.2657 29.4379 37.8899 29.0313C38.5142 28.6247 39.2449 28.4123 39.9898 28.421C40.4845 28.4268 40.9732 28.53 41.428 28.7246C41.8828 28.9193 42.2948 29.2016 42.6404 29.5555C42.9861 29.9094 43.2587 30.3279 43.4426 30.7871C43.6265 31.2464 43.7182 31.7373 43.7123 32.232Z" fill="white"/>
<path id="Vector_87" d="M46.3193 42.2144H33.3286C33.4108 40.5472 34.131 38.9754 35.3401 37.8244C36.5493 36.6735 38.1546 36.0316 39.8239 36.0316C41.4932 36.0316 43.0986 36.6735 44.3077 37.8244C45.5168 38.9754 46.2371 40.5472 46.3193 42.2144Z" fill="white"/>
<path id="Vector_88" d="M39.9835 47.9341H39.6675V48.4081H39.9835V47.9341Z" fill="#F42525"/>
<path id="Vector_89" d="M39.9835 52.08H39.6675V51.1636H39.9835V52.08ZM39.9835 50.244H39.6675V49.3245H39.9835V50.244Z" fill="#F42525"/>
<path id="Vector_90" d="M40.23 53.7611L39.6675 53.5904V52.9995H39.9835V53.3534L40.3248 53.4577L40.23 53.7611Z" fill="#F42525"/>
<path id="Vector_91" d="M55.932 58.5453L55.0599 58.2799L55.1515 57.9639L56.0237 58.2293L55.932 58.5453ZM54.1877 58.0144L53.3156 57.749L53.4072 57.433L54.2794 57.7016L54.1877 58.0144ZM52.456 57.4836L51.5839 57.2181L51.6755 56.9021L52.5477 57.1676L52.456 57.4836ZM50.7117 56.9527L49.8396 56.6872L49.9312 56.3712L50.8034 56.6367L50.7117 56.9527ZM48.9674 56.4186L48.0921 56.1532L48.1837 55.853L49.059 56.1184L48.9674 56.4186ZM47.2199 55.8878L46.3478 55.6223L46.4394 55.3063L47.3116 55.5718L47.2199 55.8878ZM45.4756 55.3569L44.6003 55.0914L44.6951 54.7754L45.5672 55.0409L45.4756 55.3569ZM43.7281 54.826L42.8559 54.5606L42.9476 54.2446L43.8198 54.51L43.7281 54.826ZM41.9838 54.292L41.1116 54.0265L41.2033 53.7263L42.0754 53.9918L41.9838 54.292Z" fill="#F42525"/>
<path id="Vector_92" d="M56.9093 58.5124L56.8173 58.8147L57.2707 58.9528L57.3628 58.6505L56.9093 58.5124Z" fill="#F42525"/>
<path id="Vector_93" d="M57.1139 59.3606C57.2262 59.3947 57.3462 59.3949 57.4586 59.3609C57.571 59.3269 57.6709 59.2604 57.7455 59.1697C57.8201 59.0791 57.8662 58.9683 57.8779 58.8515C57.8897 58.7346 57.8665 58.6169 57.8113 58.5132C57.7562 58.4095 57.6715 58.3245 57.5681 58.2689C57.4646 58.2133 57.347 58.1896 57.2301 58.2008C57.1132 58.212 57.0023 58.2576 56.9113 58.3319C56.8203 58.4061 56.7533 58.5057 56.7189 58.6179C56.696 58.6926 56.688 58.7711 56.6955 58.8489C56.7029 58.9267 56.7256 59.0022 56.7623 59.0712C56.799 59.1402 56.849 59.2012 56.9093 59.2509C56.9696 59.3005 57.0391 59.3378 57.1139 59.3606Z" fill="#F42525"/>
</g>
<g id="freepik--Character--inject-62">
<path id="Vector_94" d="M82.5929 126.846H63.3864V128.255H82.5929V126.846Z" fill="#C7C7C7"/>
<path id="Vector_95" d="M64.9886 80.2767L64.8874 87.9303L64.2396 123.935L64.2175 125.553L63.9331 146.855H62.8461L62.5585 125.553L62.5396 123.935L61.8886 87.9303L61.7875 80.2767H64.9886Z" fill="#C7C7C7"/>
<path id="Vector_96" d="M61.7875 80.2767H64.9886L64.8874 87.9303H61.8886L61.7875 80.2767Z" fill="#A6A6A6"/>
<path id="Vector_97" d="M84.195 80.2767L84.0907 87.9303L83.1364 146.855H82.0494L81.765 125.553L81.7429 123.935L81.0919 87.9303L80.9908 80.2767H84.195Z" fill="#C7C7C7"/>
<path id="Vector_98" d="M84.195 80.2767L84.0907 87.9303H81.0919L80.9908 80.2767H84.195Z" fill="#A6A6A6"/>
<path id="Vector_99" d="M72.6484 126.846H53.7958V128.255H72.6484V126.846Z" fill="#C7C7C7"/>
<path id="Vector_100" d="M55.398 80.2767L55.2937 87.9303L54.6459 123.935L54.6238 125.553L54.3394 146.855H53.2523L52.298 87.9303L52.1937 80.2767H55.398Z" fill="#C7C7C7"/>
<path id="Vector_101" d="M52.1937 80.2767H55.398L55.2937 87.9303H52.298L52.1937 80.2767Z" fill="#A6A6A6"/>
<path id="Vector_102" d="M74.2505 80.2767L74.1494 87.9303L73.4984 123.935L73.4795 125.553L73.1919 146.855H72.108L71.8205 125.553L71.8015 123.935L71.1506 87.9303L71.0494 80.2767H74.2505Z" fill="#C7C7C7"/>
<path id="Vector_103" d="M71.0494 80.2767H74.2505L74.1494 87.9303H71.1506L71.0494 80.2767Z" fill="#A6A6A6"/>
<path id="Vector_104" d="M85.8572 72.6136H50.9202V80.9055H85.8572V72.6136Z" fill="#F42525"/>
<path id="Vector_105" d="M85.8572 72.6136H50.9202V80.9055H85.8572V72.6136Z" fill="#37474F"/>
<path id="Vector_106" d="M78.5607 72.6136H50.9202V80.9055H78.5607V72.6136Z" fill="#455A64"/>
<path id="Vector_107" d="M75.6219 104.865L63.0862 114.996C60.6783 116.92 58.6053 118.649 57.6162 119.644C57.6126 119.645 57.6092 119.647 57.6065 119.65C57.6038 119.653 57.6017 119.656 57.6004 119.66C57.2244 120.033 57.0095 120.292 56.9969 120.431C56.9969 120.431 56.9969 120.45 56.9969 120.456C57.0854 121.562 71.8963 141.236 72.6421 141.748C73.3878 142.26 74.9109 140.168 74.9425 138.948C74.9741 137.729 72.68 127.664 72.68 127.664L85.1051 117.426L75.6219 104.865Z" fill="#D3766A"/>
<path id="Vector_108" d="M73.8302 132.91C74.399 135.558 74.9552 138.338 74.9425 138.948C74.9078 140.168 73.3878 142.266 72.6421 141.748C71.8963 141.23 57.0822 121.562 56.9969 120.459C56.9969 120.459 56.9969 120.443 56.9969 120.431C56.9969 120.301 57.2244 120.033 57.6004 119.66C57.6004 119.66 57.6004 119.66 57.6004 119.644C58.4031 118.835 59.9262 117.546 61.7558 116.057C62.1793 115.71 62.6217 115.359 63.0736 114.992L75.6093 104.861L85.0893 117.413L72.68 127.664C72.68 127.664 73.2646 130.22 73.8397 132.916L73.8302 132.91Z" fill="#D3766A"/>
<path id="Vector_109" d="M74.9425 138.948C74.9078 140.168 73.3878 142.266 72.6421 141.748C71.8963 141.23 57.0822 121.562 56.9969 120.459C56.9969 120.459 56.9969 120.443 56.9969 120.431C56.9969 120.301 57.2244 120.033 57.6004 119.66C57.6004 119.66 57.6004 119.66 57.6004 119.644C58.4031 118.835 59.9262 117.546 61.7558 116.057C64.4734 121.553 71.9279 136.319 73.4321 136.218C73.9661 136.18 73.9503 134.493 73.8176 132.91C74.399 135.564 74.9552 138.339 74.9425 138.948Z" fill="#263238"/>
<path id="Vector_110" d="M82.397 92.7997C81.509 97.1827 63.3232 114.673 63.3232 114.673L76.0012 129.307C76.0012 129.307 101.822 103.534 100.488 93.852C99.3188 85.4306 86.7072 51.5554 86.7072 51.5554H72.1712C72.1712 51.5554 83.2692 88.48 82.397 92.7997Z" fill="#37474F"/>
<path id="Vector_111" d="M82.397 92.7997C81.509 97.1827 63.3232 114.673 63.3232 114.673L76.0012 129.307C76.0012 129.307 101.822 103.534 100.488 93.852C99.3188 85.4306 86.7072 51.5554 86.7072 51.5554H72.1712C72.1712 51.5554 83.2692 88.48 82.397 92.7997Z" fill="#263238"/>
<path id="Vector_112" d="M77.4453 125.828C75.761 123.73 76.2729 124.308 74.5665 122.229C73.7291 121.214 68.2307 114.537 67.2985 113.725C67.2936 113.721 67.2871 113.718 67.2803 113.718C67.2735 113.717 67.2668 113.719 67.2614 113.724C67.2561 113.728 67.2524 113.734 67.2511 113.741C67.2498 113.747 67.2509 113.754 67.2543 113.76C67.8863 114.834 73.5048 121.414 74.358 122.415C76.1054 124.46 75.622 123.853 77.3979 125.891C77.42 125.917 77.4769 125.866 77.4453 125.828Z" fill="#37474F"/>
<path id="Vector_113" d="M84.2045 90.6636C83.9959 89.5703 83.7589 88.4801 83.5283 87.3899C83.0543 85.1652 82.5529 82.9459 82.0241 80.7318C80.9708 76.3436 79.8321 71.9796 78.6081 67.6399C77.3663 63.2854 76.0549 58.9372 74.5475 54.6681C74.3611 54.1435 74.1683 53.6158 73.9756 53.0881C73.9731 53.0797 73.9673 53.0727 73.9596 53.0685C73.9519 53.0644 73.9429 53.0635 73.9345 53.066C73.9261 53.0685 73.9191 53.0742 73.9149 53.0819C73.9108 53.0896 73.9099 53.0987 73.9124 53.107C75.2175 57.3825 76.5668 61.639 77.7929 65.9493C79.0189 70.2595 80.1439 74.5413 81.2088 78.8642C81.7429 81.0351 82.2421 83.2155 82.7288 85.3991C82.9668 86.4693 83.1996 87.5426 83.4271 88.6191C83.7142 89.7145 83.9181 90.83 84.037 91.9561C84.0736 93.0174 83.7751 94.0633 83.1838 94.9454C82.6371 95.8397 81.9957 96.6771 81.3763 97.5208C80.1313 99.2051 68.2907 112.401 67.9084 112.762C67.8799 112.79 67.9084 112.831 67.9558 112.803C69.5358 111.377 79.5909 100.501 80.8675 98.8164C81.4995 97.9854 82.1126 97.1416 82.7193 96.2884C83.3217 95.514 83.8082 94.656 84.1634 93.7415C84.4984 92.724 84.3973 91.6843 84.2045 90.6636Z" fill="#37474F"/>
<path id="Vector_114" d="M84.1729 51.5492L81.528 86.2176C79 74.3518 72.1396 51.5492 72.1396 51.5492H84.1729Z" fill="#37474F"/>
<path id="Vector_115" d="M79.1769 122.924C79.1769 122.924 82.318 138.215 82.318 138.228C82.3591 141.309 82.4507 144.008 82.634 145.398C82.634 145.398 82.634 145.414 82.634 145.423C82.7003 145.948 82.7762 146.283 82.8741 146.371L82.8899 146.39C83.8158 146.997 108.439 147.379 109.304 147.104C110.17 146.829 109.45 144.346 108.505 143.568C107.56 142.791 98.1938 138.43 98.1938 138.43L94.9011 123.145L79.1769 122.924Z" fill="#D3766A"/>
<path id="Vector_116" d="M109.304 147.104C108.442 147.382 83.8159 147.003 82.8932 146.393C82.8932 146.393 82.8931 146.393 82.871 146.371C82.7762 146.286 82.6972 145.951 82.6309 145.423C82.6309 145.423 82.6309 145.423 82.6309 145.404C82.495 144.292 82.4033 142.352 82.3528 140.048C88.6096 141.268 104.315 144.172 105.13 142.933C105.446 142.456 103.901 141.353 102.485 140.468C105.089 141.732 108.003 143.158 108.508 143.571C109.45 144.349 110.17 146.836 109.304 147.104Z" fill="#263238"/>
<path id="Vector_117" d="M86.5303 51.5522C85.9646 53.9468 85.5477 56.3741 85.2821 58.8202C84.9661 61.8665 84.5963 64.5588 84.1919 64.8938C83.7305 65.273 81.4332 66.7487 80.659 67.2227C80.659 67.2227 87.8259 88.954 89.6776 96.1999C92.3573 106.701 98.7816 138.209 98.7816 138.209H81.667C81.667 138.209 76.472 108.202 74.1873 98.2033C72.2376 89.6302 65.1213 65.491 65.1213 65.491C62.4037 58.8044 66.7961 51.5522 66.7961 51.5522C66.7961 51.5522 86.5334 51.5396 86.5303 51.5522Z" fill="#263238"/>
<path id="Vector_118" d="M98.1654 134.869C95.4731 134.853 96.2473 134.822 93.5549 134.837C92.2404 134.837 83.5915 134.904 82.3654 135.125C82.3369 135.125 82.3369 135.175 82.3654 135.179C83.5978 135.365 92.2435 135.156 93.5613 135.122C96.2504 135.055 95.4762 135.046 98.1654 134.948C98.174 134.945 98.1815 134.94 98.1869 134.933C98.1923 134.926 98.1952 134.917 98.1952 134.908C98.1952 134.899 98.1923 134.891 98.1869 134.884C98.1815 134.877 98.174 134.871 98.1654 134.869Z" fill="#37474F"/>
<path id="Vector_119" d="M85.4022 64.0279C83.7394 64.9416 82.1597 65.999 80.6811 67.1879C80.6242 67.2322 80.6811 67.327 80.7443 67.2859C82.3464 66.2842 83.9833 65.3077 85.5286 64.2175C85.5537 64.2008 85.5712 64.1747 85.5771 64.1451C85.583 64.1154 85.5769 64.0847 85.5602 64.0595C85.5434 64.0344 85.5173 64.0169 85.4877 64.011C85.4581 64.0051 85.4273 64.0112 85.4022 64.0279Z" fill="#37474F"/>
<path id="Vector_120" d="M84.1034 52.4781C84.1034 52.4212 83.9833 52.4244 83.996 52.4781C84.2884 54.2995 84.4867 56.1347 84.5901 57.9765C84.6469 58.8708 84.6943 63.8636 83.108 63.7435C82.8426 63.7246 82.6719 63.4907 82.5708 63.1115C82.498 62.6049 82.4885 62.0911 82.5424 61.5821C82.5424 60.5361 82.5424 59.4902 82.4571 58.4442C82.3397 56.4955 82.022 54.564 81.5091 52.6804C81.5049 52.6691 81.4969 52.6597 81.4864 52.6538C81.476 52.648 81.4638 52.646 81.452 52.6483C81.4403 52.6505 81.4297 52.6569 81.4222 52.6663C81.4147 52.6756 81.4108 52.6873 81.4111 52.6993C81.863 55.3616 82.1134 58.0542 82.16 60.7542C82.16 62.0529 81.8219 64.0627 83.1807 64.05C84.5395 64.0374 84.9408 60.7036 84.9693 59.803C85.0117 57.3335 84.7205 54.8696 84.1034 52.4781Z" fill="#37474F"/>
<path id="Vector_121" d="M83.168 63.8795C83.0821 64.2299 83.0199 64.5857 82.9816 64.9444C82.9227 65.2253 82.9173 65.5148 82.9658 65.7976C82.9704 65.8085 82.9781 65.8178 82.9879 65.8243C82.9977 65.8308 83.0093 65.8343 83.0211 65.8343C83.0329 65.8343 83.0444 65.8308 83.0543 65.8243C83.0641 65.8178 83.0718 65.8085 83.0764 65.7976C83.1966 65.5223 83.2744 65.2304 83.3071 64.9318C83.3734 64.6158 83.4493 64.2713 83.5061 63.9395C83.507 63.8981 83.493 63.8578 83.4667 63.8257C83.4404 63.7937 83.4036 63.7721 83.3628 63.7649C83.322 63.7576 83.2799 63.7652 83.2442 63.7862C83.2085 63.8072 83.1815 63.8403 83.168 63.8795Z" fill="#37474F"/>
<path id="Vector_122" d="M79.6762 125.452C79.632 125.054 79.5783 124.659 79.5214 124.264C79.414 123.506 79.2876 122.75 79.1706 121.995C78.9368 120.472 78.6745 118.955 78.4059 117.441C77.8687 114.417 77.2494 111.406 76.5952 108.407C76.2255 106.71 75.7958 105.035 75.3312 103.351C75.2996 103.234 75.1353 103.291 75.1543 103.405C75.4292 104.937 75.6946 106.47 76.0075 107.996C76.3203 109.523 76.6395 111.039 76.9365 112.562C77.5338 115.574 78.0899 118.592 78.6872 121.603C78.8546 122.453 79.0032 123.306 79.1738 124.156C79.256 124.583 79.3413 125.007 79.4329 125.42C79.5246 125.834 79.6541 126.255 79.7236 126.684C79.7236 126.726 79.79 126.707 79.7837 126.684C79.73 126.261 79.7236 125.847 79.6762 125.452Z" fill="#37474F"/>
<path id="Vector_123" d="M91.4788 102.7C90.9069 99.8561 90.139 97.0595 89.368 94.2692C87.8132 88.6507 85.9804 83.1175 84.154 77.5844C83.6294 75.9917 83.1027 74.398 82.574 72.8033C82.3117 72.007 81.0224 67.7094 80.8612 67.2986C80.8583 67.2898 80.852 67.2825 80.8437 67.2784C80.8354 67.2742 80.8258 67.2735 80.817 67.2765C80.8082 67.2794 80.8009 67.2857 80.7968 67.294C80.7926 67.3023 80.792 67.3119 80.7949 67.3207C81.1646 68.7838 81.6734 70.9199 82.1 72.3767C82.5266 73.8335 82.9816 75.2207 83.4272 76.6585C84.3025 79.4583 85.1904 82.2549 86.0405 85.0673C87.7184 90.6194 89.3838 96.1715 90.7457 101.815C91.1281 103.395 91.5073 104.975 91.8549 106.555C92.2025 108.135 92.4869 109.737 92.8313 111.324C92.8313 111.368 92.9135 111.355 92.9103 111.324C92.6228 108.407 92.0508 105.544 91.4788 102.7Z" fill="#37474F"/>
<path id="Vector_124" d="M80.896 117.944C79.9827 112.657 78.8862 107.399 77.6728 102.172C76.4594 96.9457 75.0974 91.7001 73.5996 86.5208C72.1017 81.3416 70.4396 76.2098 68.6668 71.1253C67.8231 68.7142 66.9636 66.2968 66.4106 63.8004C65.8576 61.304 65.3835 57.3067 67.9589 52.1622C67.9811 52.1211 67.8389 52.099 67.8168 52.14C64.4292 57.9766 65.9618 64.0754 67.4818 68.6921C68.316 71.2201 69.204 73.7292 70.0098 76.2761C70.8525 78.8736 71.6614 81.4838 72.4367 84.1066C73.9693 89.3017 75.3913 94.5346 76.6679 99.7928C77.9445 105.051 79.079 110.354 80.0776 115.678C81.0761 121.003 81.923 126.387 82.7793 131.756C82.8899 132.455 82.9784 133.156 83.0669 133.858C83.0669 133.896 83.1333 133.896 83.1301 133.858C82.5139 128.524 81.8187 123.24 80.896 117.944Z" fill="#37474F"/>
<path id="Vector_125" d="M69.7001 59.3258C70.0445 59.1931 70.4269 59.1647 70.784 59.0636C71.1587 58.9634 71.5261 58.8378 71.8837 58.6875C72.562 58.3994 73.1995 58.0233 73.7797 57.5689C74.3364 57.0901 74.7644 56.4796 75.0247 55.793C75.1827 55.4264 75.8684 53.4893 75.8747 53.4767C75.8811 53.464 75.9885 53.4482 75.9853 53.4956C75.9664 53.7548 75.5745 55.4106 75.4418 55.8277C75.224 56.6158 74.7855 57.3252 74.1778 57.8722C73.5497 58.3955 72.8311 58.7993 72.0575 59.0636C71.6622 59.205 71.255 59.3107 70.8409 59.3796C70.4588 59.4688 70.064 59.4891 69.6748 59.4396C69.6306 59.427 69.6495 59.3416 69.7001 59.3258Z" fill="#37474F"/>
<path id="Vector_126" d="M88.9256 58.0587C88.7371 57.9778 88.5427 57.9113 88.3441 57.8596C88.1348 57.7728 87.9338 57.6671 87.7437 57.5436C87.3407 57.2825 86.9787 56.963 86.6693 56.5956C86.3165 56.1196 86.0511 55.5846 85.8857 55.0156C85.7751 54.6996 85.478 52.9016 85.4749 52.889C85.4717 52.8763 85.4148 52.8668 85.4211 52.9111C85.4523 53.6336 85.5368 54.3529 85.6739 55.063C85.8249 55.7202 86.0983 56.343 86.4797 56.899C86.8012 57.3191 87.2083 57.666 87.6742 57.9165C87.8795 58.0293 88.0997 58.1122 88.3283 58.163C88.5261 58.2302 88.7405 58.2302 88.9382 58.163C88.9698 58.144 88.954 58.0714 88.9256 58.0587Z" fill="#37474F"/>
<path id="Vector_127" d="M83.5725 28.4116C84.1508 29.8842 84.9724 31.2209 85.4306 32.7471C85.8798 34.15 86.0115 35.6353 85.8161 37.0953C84.9977 42.4357 78.0425 45.6273 73.1571 43.9809C70.8219 43.1878 68.79 41.2918 68.1675 38.8617C67.4091 35.8819 68.9986 33.0189 69.9655 30.2981C70.4989 28.7753 70.764 27.1716 70.7492 25.5581C70.7492 24.1425 70.6639 22.7141 70.9483 21.3079C71.1537 20.3157 71.8331 17.4211 75.5019 16.2519C78.1341 15.4209 80.798 16.8587 82.0241 19.3614C83.4524 22.2749 82.4317 25.4886 83.5725 28.4116Z" fill="#263238"/>
<path id="Vector_128" d="M71.0305 28.8446C69.8929 31.2809 68.3982 33.771 67.9621 36.4602C67.5987 38.688 68.1991 41.099 70.1394 42.4262C70.1394 42.4262 70.1741 42.4262 70.1583 42.401C68.1201 40.821 67.8673 38.0939 68.4393 35.746C69.0239 33.3412 70.4332 31.2493 71.1442 28.8951C71.1478 28.8807 71.1462 28.8655 71.1397 28.8521C71.1332 28.8388 71.1222 28.8281 71.1086 28.8221C71.095 28.8161 71.0797 28.815 71.0654 28.8191C71.0512 28.8232 71.0388 28.8322 71.0305 28.8446Z" fill="#263238"/>
<path id="Vector_129" d="M70.5154 28.7055C69.6559 31.9003 67.0236 34.4157 66.8561 37.8158C66.8561 37.8569 66.9162 37.8664 66.9193 37.8158C67.1405 34.422 70.0793 32.0109 70.5786 28.7055C70.5786 28.6972 70.5753 28.6891 70.5694 28.6832C70.5634 28.6773 70.5554 28.674 70.547 28.674C70.5386 28.674 70.5306 28.6773 70.5247 28.6832C70.5187 28.6891 70.5154 28.6972 70.5154 28.7055Z" fill="#263238"/>
<path id="Vector_130" d="M83.7558 28.3579C83.204 27.1741 82.866 25.9021 82.7572 24.6006C82.7572 24.5343 82.6403 24.5279 82.6372 24.6006C82.3212 29.2901 87.6932 32.8166 86.2712 37.6577C86.2712 37.6925 86.3122 37.7146 86.3249 37.6799C87.0106 35.6796 86.4766 33.6762 85.5791 31.8307C85.004 30.652 84.312 29.5429 83.7558 28.3579Z" fill="#263238"/>
<path id="Vector_131" d="M82.6687 23.9055C82.6687 23.8139 82.5265 23.8423 82.5329 23.9276C82.6603 25.6832 83.2276 27.3785 84.1824 28.8572C84.6501 29.5903 85.222 30.2445 85.6739 30.9839C86.17 31.796 86.5524 32.665 86.9663 33.5119C86.9678 33.5153 86.9702 33.5182 86.9733 33.5202C86.9764 33.5222 86.98 33.5233 86.9837 33.5233C86.9874 33.5233 86.991 33.5222 86.9941 33.5202C86.9972 33.5182 86.9996 33.5153 87.0011 33.5119C86.4607 31.8972 85.6139 30.611 84.6437 29.2364C83.5518 27.6516 82.8729 25.8192 82.6687 23.9055Z" fill="#263238"/>
<path id="Vector_132" d="M78.1342 36.9721C83.3513 43.627 89.6713 50.6833 94.2249 51.0183C98.5604 51.3343 106.511 39.2283 107.554 35.5027C107.911 34.2166 98.3898 30.6774 97.4418 31.7454C95.6627 33.7647 92.8598 39.5854 92.1867 39.5728C91.5136 39.5601 85.0925 35.6575 79.3571 32.4375C75.8716 30.4783 74.5223 32.3585 78.1342 36.9721Z" fill="#D3766A"/>
<path id="Vector_133" d="M105.506 37.6735C105.506 37.6735 108.385 34.8295 110.18 32.8609C111.181 31.7707 112.733 29.7483 113.103 28.6075C113.653 26.9074 114.875 19.4435 113.071 19.0959C111.434 18.7799 111.2 25.3464 111.2 25.3464C111.2 25.3464 112.022 18.7546 109.987 18.7515C107.952 18.7483 108.672 26.1869 108.672 26.1869C108.672 26.1869 109.364 19.3961 107.263 19.7247C105.683 19.9712 105.952 26.7494 105.952 26.7494C105.952 26.7494 106.505 20.9066 104.861 21.0899C103.048 21.2953 102.905 27.5647 102.905 27.5647C101.413 27.985 100.042 28.7553 98.9075 29.8116C97.7726 30.8679 96.9061 32.1798 96.38 33.6382C96.2062 34.0711 105.506 37.6735 105.506 37.6735Z" fill="#D3766A"/>
<path id="Vector_134" d="M111.093 27.3341C112.069 22.5246 111.074 19.867 111.093 19.9429C111.381 21.7377 111.226 24.528 111.169 25.3149C111.112 26.1017 111.128 26.5599 111.071 27.3373C111.061 27.3531 111.09 27.3499 111.093 27.3341Z" fill="#263238"/>
<path id="Vector_135" d="M108.246 27.492C108.729 25.5649 108.864 23.5669 108.644 21.5923C108.644 21.5165 108.603 21.5417 108.6 21.6176C108.555 22.6098 108.312 26.5061 108.224 27.492C108.221 27.511 108.243 27.511 108.246 27.492Z" fill="#263238"/>
<path id="Vector_136" d="M105.803 27.808C106.147 26.3071 106.206 24.755 105.977 23.2323C105.977 23.1565 105.926 23.1944 105.923 23.2734C105.895 24.7934 105.882 25.991 105.753 27.8017C105.749 27.8238 105.8 27.8364 105.803 27.808Z" fill="#263238"/>
<path id="Vector_137" d="M95.7922 33.3728L105.484 40.4923C105.484 40.4923 98.6742 51.6723 94.484 51.4037C90.2938 51.1351 80.6716 41.6393 76.965 35.1708C74.399 30.6963 77.202 30.9743 80.441 32.8071C83.68 34.6399 92.0445 39.1271 92.3478 38.9786C92.6512 38.8301 95.7922 33.3728 95.7922 33.3728Z" fill="#F42525"/>
<g id="Group" opacity="0.5">
<path id="Vector_138" d="M95.7922 33.3728L105.484 40.4923C105.484 40.4923 98.6742 51.6723 94.484 51.4037C90.2938 51.1351 80.6716 41.6393 76.965 35.1708C74.399 30.6963 77.202 30.9743 80.441 32.8071C83.68 34.6399 92.0445 39.1271 92.3478 38.9786C92.6512 38.8301 95.7922 33.3728 95.7922 33.3728Z" fill="white"/>
</g>
<path id="Vector_139" d="M97.625 50.0829C96.5127 50.9361 95.413 51.4639 94.465 51.4038C90.2559 51.1352 80.6527 41.6394 76.946 35.1709C74.8983 31.6001 76.2698 31.0629 78.5481 31.9129C84.1792 37.1743 92.765 45.2576 97.625 50.0829Z" fill="#F42525"/>
<path id="Vector_140" d="M103.114 42.4041C101.724 41.434 96.162 37.2501 95.0275 36.2673C94.9485 36.1978 94.9738 36.1315 95.0655 36.1915C99.3093 39.0008 101.834 41.3265 103.152 42.3472C103.184 42.3756 103.149 42.4294 103.114 42.4041Z" fill="#263238"/>
<path id="Vector_141" d="M64.9791 52.1621L87.0011 51.6597L84.6469 45.1469C85.1378 44.2808 85.4332 43.3177 85.5124 42.3253C85.5915 41.3328 85.4525 40.3351 85.1051 39.4021C84.4131 37.5408 81.6828 34.9054 80.008 33.2274C75.9221 29.1384 72.9075 31.4294 71.9911 32.6618C68.4898 37.3639 64.9791 52.1621 64.9791 52.1621Z" fill="#F42525"/>
<path id="Vector_142" opacity="0.5" d="M64.9791 52.1621L87.0011 51.6597L84.6469 45.1469C85.1378 44.2808 85.4332 43.3177 85.5124 42.3253C85.5915 41.3328 85.4525 40.3351 85.1051 39.4021C84.4131 37.5408 81.6828 34.9054 80.008 33.2274C75.9221 29.1384 72.9075 31.4294 71.9911 32.6618C68.4898 37.3639 64.9791 52.1621 64.9791 52.1621Z" fill="white"/>
<path id="Vector_143" d="M78.2858 45.0047C79.2103 44.8773 80.143 44.8192 81.0761 44.8309C81.5406 44.8309 82.002 44.8752 82.4633 44.9194C82.694 44.9415 82.9247 44.9542 83.1554 44.9668C83.3967 44.9869 83.6396 44.9784 83.879 44.9415C83.898 44.9415 83.9043 44.9668 83.879 44.9731C83.6593 45.0352 83.4354 45.0817 83.2091 45.1122C82.9889 45.1379 82.767 45.1463 82.5455 45.1375C82.0747 45.1375 81.5975 45.0995 81.133 45.0869C80.185 45.0616 79.237 45.0363 78.289 45.0869C78.2479 45.0837 78.2416 45.0079 78.2858 45.0047Z" fill="#263238"/>
<path id="Vector_144" d="M76.2286 46.3193C76.9532 46.0663 77.6918 45.8553 78.4406 45.6873C78.8198 45.6052 79.199 45.5451 79.5814 45.4977C79.7615 45.4725 79.9448 45.4535 80.1281 45.4345C80.3114 45.4156 80.5357 45.4345 80.7348 45.3998C80.7569 45.3998 80.7632 45.4314 80.7348 45.4314C80.5484 45.4598 80.3619 45.5199 80.1755 45.5578L79.6098 45.6715C79.2338 45.7474 78.8578 45.8264 78.4817 45.8991C77.7265 46.0444 76.9744 46.1993 76.2255 46.3699C76.2002 46.3889 76.1907 46.332 76.2286 46.3193Z" fill="#263238"/>
<path id="Vector_145" d="M70.9672 34.6779C66.0124 43.2288 59.25 60.9059 57.9133 63.7151C57.0032 65.6111 66.9635 70.6387 67.3933 69.2546C67.9337 67.4818 74.1968 46.569 74.6613 36.3716C74.8509 31.6474 72.5536 31.9445 70.9672 34.6779Z" fill="#D3766A"/>
<path id="Vector_146" d="M67.6556 68.2972C67.4249 70.0257 66.2494 73.5049 65.3772 74.0326C64.5051 74.5603 59.9199 74.4497 57.61 74.4497C55.3 74.4497 54.845 73.8177 54.8829 73.0119C54.9208 72.2061 59.7682 72.0639 59.7682 72.0639C59.7682 72.0639 53.2934 73.922 51.666 74.2222C50.0386 74.5224 46.294 75.4862 45.741 74.1211C45.4977 73.5143 46.5247 72.8981 46.5247 72.8981C46.5247 72.8981 44.9447 73.3563 44.7014 72.5821C44.4138 71.691 45.6494 71.2012 45.6494 71.2012C45.6494 71.2012 44.6666 71.3971 44.6445 70.6735C44.5939 69.0493 50.7528 68.2529 50.7528 68.2529C50.7528 68.2529 46.038 70.5471 45.8864 69.2231C45.6746 67.3903 55.3379 65.3805 56.3428 64.581C57.0756 63.9723 57.7602 63.3078 58.3905 62.5934L67.6556 68.2972Z" fill="#D3766A"/>
<path id="Vector_147" d="M54.9176 73.4132C54.9021 73.3005 54.9137 73.1858 54.9517 73.0786C54.9896 72.9713 55.0527 72.8748 55.1357 72.797C55.303 72.6448 55.4941 72.521 55.7013 72.4304C56.1287 72.2472 56.5719 72.1033 57.0254 72.0007C57.9355 71.77 58.8677 71.6057 59.7967 71.3687C58.8391 71.3531 57.8835 71.4593 56.9527 71.6847C56.477 71.7954 56.0187 71.9708 55.5907 72.2061C55.3711 72.3282 55.1786 72.4937 55.0251 72.6927C54.9465 72.7933 54.8953 72.9126 54.8765 73.0388C54.8577 73.1651 54.8718 73.2941 54.9176 73.4132Z" fill="#263238"/>
<path id="Vector_148" d="M46.5247 72.8981C47.1914 72.7338 47.8487 72.5473 48.5028 72.3577C49.1569 72.1681 49.8111 71.9659 50.462 71.77L52.4117 71.1601C53.0627 70.9547 53.7137 70.7524 54.3709 70.5565C53.6885 70.633 53.0118 70.7544 52.3454 70.9199C51.6786 71.0716 51.0213 71.2612 50.3672 71.4603C49.7131 71.6594 49.0653 71.8806 48.4238 72.1207C47.7823 72.3609 47.1472 72.6074 46.5247 72.8981Z" fill="#263238"/>
<path id="Vector_149" d="M52.8068 68.9418C52.1788 68.9811 51.5546 69.0667 50.9392 69.1977C50.3213 69.3215 49.7105 69.4787 49.1096 69.6686C48.509 69.8558 47.9192 70.0763 47.3431 70.329C46.7641 70.5777 46.2034 70.867 45.6652 71.1949C46.2624 70.9895 46.8407 70.7588 47.4348 70.5629C48.0288 70.3669 48.6134 70.1615 49.2075 69.9783C49.8016 69.795 50.3988 69.6149 50.9961 69.4411C51.5933 69.2673 52.2 69.1061 52.8068 68.9418Z" fill="#263238"/>
<path id="Vector_150" d="M51.8524 67.3934C50.839 67.4737 49.8404 67.6862 48.882 68.0254C47.9154 68.344 46.9952 68.7892 46.1454 69.3495C47.0934 69.0082 48.0414 68.6511 48.9894 68.332C49.9374 68.0128 50.876 67.7063 51.8524 67.3934Z" fill="#263238"/>
<path id="Vector_151" d="M57.3287 63.2665L68.256 68.6037C68.256 68.6037 73.9598 45.9718 74.6645 38.0402C75.3692 30.1086 72.3198 31.9319 70.2152 35.6575C67.327 40.7641 57.3287 63.2665 57.3287 63.2665Z" fill="#F42525"/>
<path id="Vector_152" opacity="0.5" d="M57.3287 63.2665L68.256 68.6037C68.256 68.6037 73.9598 45.9718 74.6645 38.0402C75.3692 30.1086 72.3198 31.9319 70.2152 35.6575C67.327 40.7641 57.3287 63.2665 57.3287 63.2665Z" fill="white"/>
<path id="Vector_153" d="M67.9874 65.8291C66.499 65.2256 60.5045 62.5364 59.25 61.8665C59.1647 61.8191 59.171 61.7527 59.269 61.7907C63.7656 63.4907 66.5812 65.1055 68.0095 65.7691C68.0443 65.7881 68.0253 65.8449 67.9874 65.8291Z" fill="#263238"/>
<path id="Vector_154" d="M72.048 52.9648C72.2091 51.7956 72.4114 50.6359 72.6231 49.4888C72.8348 48.3418 73.0592 47.1726 73.2962 46.0128C73.5332 44.8531 73.7828 43.706 74.0546 42.559L74.4622 40.8399C74.6139 40.268 74.7498 39.696 74.9109 39.1272C74.8351 39.715 74.734 40.2932 74.6423 40.8778L74.3263 42.619C74.1209 43.7787 73.8871 44.9321 73.6533 46.095C73.4194 47.2579 73.1666 48.3986 72.8949 49.5457C72.6231 50.6928 72.364 51.8241 72.048 52.9648Z" fill="#263238"/>
<path id="Vector_155" d="M74.3011 42.126C74.385 41.8251 74.5027 41.5346 74.6518 41.2601C74.793 40.981 74.9658 40.7191 75.1669 40.4796C75.0827 40.781 74.9662 41.0723 74.8193 41.3486C74.6763 41.6264 74.5025 41.8871 74.3011 42.126Z" fill="#263238"/>
<path id="Vector_156" d="M78.5355 35.6733C78.5355 35.6733 74.0135 33.0347 71.8995 33.4233L70.3416 35.2846C70.3416 35.2846 69.7791 35.569 69.5421 35.2214C68.9544 34.365 68.5309 32.1404 70.2373 30.4024C71.8173 28.8224 75.4577 28.5443 77.9572 28.8224C80.3588 29.0878 81.8345 30.2602 81.3479 31.8718C80.8613 33.4834 78.5355 35.6733 78.5355 35.6733Z" fill="#F42525"/>
<path id="Vector_157" opacity="0.5" d="M78.5355 35.6733C78.5355 35.6733 74.0135 33.0347 71.8995 33.4233L70.3416 35.2846C70.3416 35.2846 69.7791 35.569 69.5421 35.2214C68.9544 34.365 68.5309 32.1404 70.2373 30.4024C71.8173 28.8224 75.4577 28.5443 77.9572 28.8224C80.3588 29.0878 81.8345 30.2602 81.3479 31.8718C80.8613 33.4834 78.5355 35.6733 78.5355 35.6733Z" fill="white"/>
<path id="Vector_158" d="M78.6619 34.9307C78.6619 34.9307 80.2419 32.7187 80.3588 31.5527C80.4757 30.3866 78.0583 29.6567 76.5447 29.4481C74.2031 29.1321 72.6958 29.5018 71.6151 30.8891C70.5344 32.2763 78.6619 34.9307 78.6619 34.9307Z" fill="#F42525"/>
<path id="Vector_159" d="M78.6619 34.9307C78.6619 34.9307 74.6013 30.9681 71.2675 31.006L71.8995 33.4234C71.8995 33.4234 74.6329 33.0663 78.5355 35.6733L78.6619 34.9307Z" fill="#F42525"/>
<path id="Vector_160" opacity="0.5" d="M78.6619 34.9307C78.6619 34.9307 74.6013 30.9681 71.2675 31.006L71.8995 33.4234C71.8995 33.4234 74.6329 33.0663 78.5355 35.6733L78.6619 34.9307Z" fill="white"/>
<path id="Vector_161" d="M71.0305 33.6003C71.6188 33.4625 72.2301 33.4539 72.8222 33.575C75.1448 33.7709 77.7075 35.2783 77.7075 35.2783L78.4565 35.787L78.5386 35.8439L78.6145 35.787C79.6257 35.0286 80.5105 33.4771 80.6906 33.1737C80.0376 34.0491 79.2893 34.8493 78.4596 35.5595H78.6176L77.8655 35.0318C77.6096 34.8643 74.8572 33.5877 72.8443 33.4044C72.6922 33.386 72.5393 33.3755 72.3861 33.3728C72.2313 33.3728 72.0701 33.3728 71.9247 33.3917C71.617 33.4099 71.3145 33.4804 71.0305 33.6003Z" fill="#263238"/>
<path id="Vector_162" d="M70.3479 35.2846C70.647 35.0103 70.9268 34.7157 71.1853 34.4029C71.4468 34.0927 71.6875 33.7654 71.9058 33.4233C71.3149 33.9801 70.7919 34.6049 70.3479 35.2846Z" fill="#263238"/>
<path id="Vector_163" d="M77.736 34.3967C77.6097 35.445 77.5748 36.5023 77.6317 37.5567C77.6665 38.2898 78.1215 40.8936 78.9305 40.7451C79.7395 40.5966 78.2985 38.9913 77.9825 37.623C77.6665 36.2548 77.9604 35.2183 77.9541 34.3872L77.736 34.3967Z" fill="#F42525"/>
<path id="Vector_164" d="M79.7394 34.207C80.2019 35.0472 80.591 35.9258 80.9023 36.833C81.1235 37.465 81.6259 39.8255 80.9023 39.993C80.1787 40.1605 80.8359 38.2929 80.6463 37.0226C80.4567 35.7523 79.8437 34.9781 79.5656 34.2702L79.7394 34.207Z" fill="#F42525"/>
<path id="Vector_165" d="M74.9204 31.8497C75.0121 32.2352 76.9808 33.989 78.7535 33.8974C79.3286 33.8689 79.1991 31.4673 79.1991 31.4673L79.2496 31.2335L79.967 27.9629L76.1181 25.517L75.5619 25.201C75.5619 25.201 75.426 26.108 75.2649 27.2424C75.2649 27.293 75.2491 27.3467 75.2428 27.4036C75.2364 27.4605 75.2206 27.5268 75.2143 27.5869C75.189 27.7543 75.1638 27.9281 75.1416 28.1019C75.1195 28.2757 75.1069 28.3579 75.0911 28.4969C75.0753 28.636 75.0626 28.7687 75.0437 28.9077C74.935 29.8844 74.8938 30.8674 74.9204 31.8497Z" fill="#D3766A"/>
<path id="Vector_166" d="M75.2649 27.2329C75.5992 28.1489 76.1287 28.9811 76.8168 29.6719C77.5049 30.3628 78.335 30.8956 79.2497 31.2335L79.967 27.9629L76.1181 25.517L75.5619 25.201C75.5619 25.201 75.4261 26.0985 75.2649 27.2329Z" fill="#263238"/>
<path id="Vector_167" d="M84.056 22.3444C85.6581 28.0008 82.4507 29.6124 81.231 29.9284C80.125 30.2444 76.3172 31.164 74.1368 25.7067C71.9564 20.2493 74.083 17.715 76.5763 16.8587C79.0695 16.0023 82.476 16.6912 84.056 22.3444Z" fill="#D3766A"/>
<path id="Vector_168" d="M82.3054 22.1201C82.1695 22.1201 82.0399 22.1201 81.9009 22.1201C81.7576 22.1397 81.6119 22.1107 81.4869 22.0379C81.4512 22.0084 81.4266 21.9675 81.4174 21.922C81.4082 21.8766 81.4149 21.8294 81.4364 21.7883C81.4884 21.7124 81.5598 21.6519 81.6432 21.613C81.7266 21.5741 81.8188 21.5583 81.9104 21.5671C82.0995 21.5552 82.2863 21.6138 82.4349 21.7314C82.4669 21.7607 82.4897 21.7986 82.5005 21.8405C82.5114 21.8824 82.5099 21.9266 82.4962 21.9677C82.4825 22.0088 82.4572 22.0451 82.4233 22.0721C82.3895 22.0992 82.3485 22.1158 82.3054 22.1201Z" fill="#263238"/>
<path id="Vector_169" d="M78.27 22.9038C78.3971 22.8555 78.5215 22.8006 78.6429 22.7394C78.7816 22.7006 78.9037 22.6174 78.9905 22.5024C79.0105 22.4607 79.016 22.4136 79.0063 22.3684C78.9966 22.3232 78.9721 22.2826 78.9368 22.2528C78.8572 22.2061 78.7667 22.1815 78.6745 22.1815C78.5823 22.1815 78.4917 22.2061 78.4122 22.2528C78.2334 22.3175 78.0856 22.4473 77.9983 22.6162C77.9854 22.6547 77.9832 22.696 77.992 22.7357C78.0007 22.7753 78.0201 22.8119 78.048 22.8414C78.0759 22.8709 78.1113 22.8923 78.1504 22.9033C78.1895 22.9143 78.2308 22.9144 78.27 22.9038Z" fill="#263238"/>
<path id="Vector_170" d="M79.3507 23.8328C79.3507 23.8328 79.3255 23.858 79.3286 23.8738C79.4329 24.2625 79.4866 24.7207 79.1643 24.9324C79.1643 24.9324 79.1643 24.9577 79.1643 24.9546C79.5877 24.7934 79.5087 24.1835 79.3507 23.8328Z" fill="#263238"/>
<path id="Vector_171" d="M78.9084 23.5073C78.2764 23.6053 78.5134 24.8756 79.1043 24.7713C79.6952 24.667 79.4424 23.4252 78.9084 23.5073Z" fill="#263238"/>
<path id="Vector_172" d="M78.684 23.6211C78.5861 23.7159 78.5039 23.8644 78.368 23.9023C78.2321 23.9402 78.0741 23.8359 77.9477 23.7285C77.9477 23.7285 77.9288 23.7285 77.9288 23.7475C77.973 23.9908 78.1152 24.2215 78.3838 24.2088C78.6524 24.1962 78.7567 23.9465 78.7693 23.6906C78.763 23.6432 78.7093 23.5863 78.684 23.6211Z" fill="#263238"/>
<path id="Vector_173" d="M81.6576 23.087C81.6576 23.087 81.6923 23.087 81.6955 23.1186C81.7555 23.5136 81.8914 23.956 82.2706 24.0224V24.0445C81.844 24.0635 81.6512 23.4726 81.6576 23.087Z" fill="#263238"/>
<path id="Vector_174" d="M81.9357 22.613C82.5677 22.4487 82.8426 23.7064 82.2517 23.877C81.6607 24.0477 81.4111 22.7521 81.9357 22.613Z" fill="#263238"/>
<path id="Vector_175" d="M82.2169 22.6352C82.3306 22.6794 82.457 22.7805 82.5771 22.7616C82.6972 22.7426 82.7888 22.5783 82.8457 22.4456C82.8457 22.4456 82.8647 22.4456 82.8678 22.4456C82.9144 22.5517 82.9219 22.6708 82.8889 22.7819C82.856 22.893 82.7847 22.9888 82.6877 23.0523C82.4855 23.1408 82.2832 22.9701 82.1726 22.7363C82.16 22.6952 82.16 22.6194 82.2169 22.6352Z" fill="#263238"/>
<path id="Vector_176" d="M80.264 27.0181C80.3714 27.0971 80.4852 27.2108 80.6306 27.2013C80.7773 27.1772 80.9173 27.1222 81.0414 27.0402C81.0414 27.0402 81.0698 27.0402 81.0635 27.056C81.018 27.1419 80.9503 27.2142 80.8676 27.2653C80.7848 27.3164 80.6899 27.3445 80.5926 27.3467C80.5074 27.3363 80.4273 27.3007 80.3625 27.2444C80.2978 27.1881 80.2513 27.1136 80.2292 27.0307C80.2292 27.0181 80.264 27.0054 80.264 27.0181Z" fill="#263238"/>
<path id="Vector_177" d="M81.6228 25.28C81.6228 25.28 81.8219 25.8488 81.8788 26.1269C81.8788 26.1522 81.8219 26.1775 81.7271 26.2027C81.4988 26.2937 81.2499 26.3204 81.0075 26.2797C80.7651 26.239 80.5386 26.1326 80.3525 25.9721C80.3272 25.9499 80.3525 25.9152 80.3841 25.9247C80.784 26.0922 81.2272 26.1265 81.6481 26.0226C81.6481 25.9436 81.272 25.0746 81.3131 25.0493C81.5312 25.0197 81.7523 25.0197 81.9704 25.0493C81.5849 23.8517 81.0224 22.7267 80.6495 21.5291C80.6495 21.4849 80.6969 21.4596 80.7159 21.4975C81.366 22.6844 81.8953 23.9336 82.2959 25.2263C82.3528 25.3811 81.7429 25.28 81.6228 25.28Z" fill="#263238"/>
<path id="Vector_178" d="M81.6797 26.0891C81.5728 26.3458 81.402 26.571 81.1835 26.7432C81.0611 26.8344 80.9128 26.8843 80.7601 26.8854C80.4441 26.8854 80.3461 26.6041 80.3367 26.3482C80.3341 26.2101 80.3479 26.0722 80.3777 25.9374C80.7841 26.1265 81.2407 26.1797 81.6797 26.0891Z" fill="#263238"/>
<path id="Vector_179" d="M81.1836 26.7431C81.0611 26.8344 80.9128 26.8842 80.7601 26.8853C80.4441 26.8853 80.3461 26.6041 80.3367 26.3481C80.5017 26.31 80.6747 26.3281 80.8282 26.3997C80.9817 26.4713 81.1068 26.5922 81.1836 26.7431Z" fill="#FF9ABB"/>
<path id="Vector_180" d="M74.6771 25.9532C75.8748 25.6182 75.1985 22.8564 75.1985 22.8564C75.1985 22.8564 75.8305 22.4013 76.3045 20.8024C76.3045 20.8024 76.0612 22.1422 75.3945 22.8437C75.2839 22.9638 79.2939 21.4533 78.8452 18.1954C78.8452 18.1954 80.5105 20.6538 83.6231 20.8276C83.7211 20.8276 82.5961 18.0658 81.8124 17.5602C81.3623 17.2641 80.8759 17.0272 80.3651 16.8555C78.8807 16.2605 77.2222 16.2707 75.7452 16.884C73.312 17.9236 72.364 21.0204 72.4588 22.1643C72.6516 24.4079 74.1083 26.1112 74.6771 25.9532Z" fill="#263238"/>
<path id="Vector_181" d="M75.5429 22.8785C77.7549 22.1833 79.1738 20.2747 78.7503 17.9299C78.7503 17.918 78.7543 17.9063 78.7617 17.8969C78.7691 17.8874 78.7794 17.8807 78.791 17.8778C78.8026 17.8749 78.8149 17.876 78.8259 17.8808C78.8368 17.8857 78.8458 17.8941 78.8515 17.9047C79.7742 20.1514 77.7075 22.5277 75.5335 22.9227C75.4829 22.9322 75.4924 22.8943 75.5429 22.8785Z" fill="#263238"/>
<path id="Vector_182" d="M78.7851 18.1068H78.8072C79.6983 19.1338 80.8359 21.0709 82.4918 20.5432C82.4961 20.5415 82.5008 20.5407 82.5054 20.5409C82.5101 20.541 82.5147 20.542 82.5189 20.544C82.5232 20.5459 82.527 20.5486 82.5302 20.552C82.5334 20.5554 82.5359 20.5594 82.5376 20.5637C82.5393 20.5681 82.54 20.5727 82.5399 20.5774C82.5398 20.582 82.5387 20.5866 82.5368 20.5909C82.5349 20.5951 82.5322 20.599 82.5288 20.6022C82.5254 20.6054 82.5214 20.6079 82.5171 20.6095C80.975 21.2479 79.2939 19.3993 78.7851 18.1068Z" fill="#263238"/>
<path id="Vector_183" d="M75.208 25.3717C75.208 25.3717 73.6027 23.8106 72.8696 24.4237C72.1365 25.0367 73.5869 27.4604 74.6171 27.6311C74.7465 27.6612 74.8806 27.665 75.0115 27.6423C75.1423 27.6196 75.2673 27.5708 75.379 27.4989C75.4907 27.427 75.5868 27.3334 75.6617 27.2237C75.7365 27.1139 75.7886 26.9903 75.8147 26.86L75.208 25.3717Z" fill="#D3766A"/>
<path id="Vector_184" d="M73.293 25.1031C73.2772 25.1031 73.293 25.1284 73.293 25.1284C74.0198 25.2738 74.4938 25.8299 74.873 26.4303C74.8217 26.3698 74.7578 26.3211 74.6858 26.2877C74.6137 26.2543 74.5353 26.237 74.4559 26.237C74.3765 26.237 74.2981 26.2543 74.226 26.2877C74.154 26.3211 74.0901 26.3698 74.0388 26.4303C74.0388 26.4303 74.0388 26.4714 74.0641 26.4619C74.1759 26.4042 74.3024 26.3812 74.4274 26.3959C74.5524 26.4105 74.6701 26.4621 74.7656 26.5441C74.9212 26.6876 75.062 26.8464 75.1859 27.0181C75.2269 27.0718 75.3312 27.0181 75.2933 26.9549C75.129 26.0859 74.2316 25.0115 73.293 25.1031Z" fill="#263238"/>
</g>
</g>
</svg>
