<?xml version="1.0" encoding="UTF-8"?><svg id="Layer_2" xmlns="http://www.w3.org/2000/svg" viewBox="0 0 122.57717 122.72864"><defs><style>.cls-1{fill:#f42525;}.cls-2{fill:#f9fcf9;}</style></defs><g id="Layer_1-2"><path class="cls-1" d="M120.08664,79.50943c-.97592,3.54949-2.62254,6.69652-6.44659,7.92193-4.72128,1.51292-6.94626,4.38337-6.45705,9.55202.5798,6.12583-3.13377,11.59952-10.22033,10.49082-5.16295-.80775-8.32913,2.07312-10.52947,6.42768-3.56908,7.06335-6.36655,8.20087-13.12737,4.42918-4.81399-2.6856-8.40221-2.21909-12.27671,1.7016-3.95146,3.99856-9.21083,3.45736-12.58978-1.01344-3.48592-4.61234-7.18814-6.79737-13.36704-4.81773-5.86129,1.87787-10.12919-1.39066-10.67151-7.55576-.52389-5.95561-4.42498-7.90269-9.24462-9.15057-6.30022-1.63121-8.53692-4.68909-6.74782-10.68497,1.71378-5.74348.52038-9.67227-4.79059-12.80931-4.04711-2.39052-4.94739-9.29853-1.42656-12.63382,4.72233-4.47347,4.77418-8.56184,1.74445-13.96466-2.7187-4.84817-1.21283-8.61252,4.02326-11.04372,5.14991-2.39118,7.93429-5.38237,7.55278-11.66004-.37625-6.19106,3.67276-10.03808,9.34605-9.21951,5.74152.82842,9.21981-2.0038,11.544-7.12882,2.62453-5.7873,6.18441-7.28719,11.78635-4.23822,5.42518,2.95275,9.32326,2.81143,14.01594-1.65088,3.75863-3.57412,8.67149-3.79633,13.25261,2.98247,2.91544,4.31404,6.39487,4.63349,10.60431,3.64806,7.5491-1.76726,10.98559.29272,12.18424,7.69045.84367,5.20688,3.82702,7.99065,9.00801,8.73387,6.24693.89615,8.84626,4.39789,6.88711,10.45523-1.89545,5.86039-.1017,9.86464,4.46836,13.24387,4.16821,3.08206,5.47633,8.79794,1.86243,12.24224-4.89292,4.66331-5.2058,9.05028-1.58886,14.34693.69739,1.02127.81199,2.4405,1.20442,3.70509ZM51.22309,80.45083c1.99586.24626,3.20582-1.24815,4.49996-2.51491,8.91541-8.72676,17.80508-17.47982,26.71946-26.20765,2.40703-2.35667,4.65939-4.96597,1.46153-8.01123-3.17832-3.02667-5.71083-.56561-8.05335,1.76423-5.89763,5.8657-11.81138,11.71537-17.74916,17.54039-2.13043,2.08998-4.08442,5.23188-6.59987,5.81341-2.54365.58805-4.09901-3.27646-6.23055-5.02359-2.18518-1.79111-4.50097-2.47117-6.6897-.38854-2.20248,2.09569-1.79913,4.55384.16801,6.63301,2.8576,3.02034,5.84194,5.92172,8.80261,8.84304.96376.95096,2.08095,1.67313,3.67107,1.55184Z"/><path class="cls-2" d="M51.22309,80.45083c-1.59012.12129-2.70731-.60088-3.67107-1.55184-2.96067-2.92132-5.94501-5.8227-8.80261-8.84304-1.96714-2.07917-2.37049-4.53732-.16801-6.63301,2.18873-2.08263,4.50453-1.40257,6.6897.38854,2.13154,1.74713,3.6869,5.61164,6.23055,5.02359,2.51546-.58153,4.46945-3.72343,6.59987-5.81341,5.93778-5.82502,11.85153-11.6747,17.74916-17.54039,2.34252-2.32984,4.87503-4.7909,8.05335-1.76423,3.19786,3.04527.9455,5.65456-1.46153,8.01123-8.91438,8.72782-17.80404,17.48088-26.71946,26.20765-1.29414,1.26676-2.5041,2.76117-4.49996,2.51491Z"/></g></svg>