<svg width="100" height="100" viewBox="0 0 100 100" fill="none" xmlns="http://www.w3.org/2000/svg">
<g id="vocational_17197649">
<path id="Vector" d="M77.9746 68.8047L69.1992 60.0254L69.1738 59.9688C69.7519 58.8613 70.2324 57.7031 70.6093 56.5117L75.9296 54.4512C76.457 54.2481 76.8027 53.7402 76.8027 53.1758V46.8203C76.8027 46.2559 76.455 45.748 75.9277 45.5449L70.6074 43.4883C70.2597 42.3887 69.8203 41.3184 69.3007 40.2891L96.2636 13.332C98.9023 10.6875 98.9023 6.38281 96.2617 3.73633C93.6171 1.09766 89.3125 1.09766 86.666 3.73633L59.7089 30.6934C58.6757 30.1738 57.6074 29.7363 56.5097 29.3887L54.4492 24.0684C54.2461 23.541 53.7382 23.1953 53.1738 23.1953H46.8183C46.2539 23.1953 45.746 23.543 45.5429 24.0703L43.4863 29.3906C42.2988 29.7656 41.1425 30.2441 40.0312 30.8203L39.955 30.7871L31.2246 22.0566C32.9414 16.9043 31.5585 10.8242 27.7089 6.97461C23.9296 3.19922 18.9882 1.83008 13.7968 3.11523C13.3183 3.23438 12.9414 3.60156 12.8086 4.07617C12.6757 4.55078 12.8086 5.06055 13.1582 5.41016L21.1757 13.4277L19.5371 19.543L13.4277 21.1777L5.41012 13.1602C5.06051 12.8105 4.55269 12.6777 4.07613 12.8105C3.60152 12.9434 3.23433 13.3203 3.11519 13.7988C1.82808 18.9941 3.19918 23.9355 6.97457 27.7129C9.72652 30.4648 13.6171 31.9551 17.4941 31.9551C19.041 31.9551 20.5859 31.7168 22.0546 31.2285L30.7851 39.959L30.8183 40.0332C30.2363 41.1504 29.7558 42.3086 29.3828 43.4883L24.0683 45.5449C23.541 45.748 23.1933 46.2559 23.1933 46.8203V53.1758C23.1933 53.7402 23.541 54.2461 24.0664 54.4512L29.3847 56.5137C29.7343 57.6133 30.1738 58.6816 30.6914 59.7109L16.2304 74.1719C16.2304 74.1719 16.2304 74.1719 16.2285 74.1738C16.2089 74.1934 16.1914 74.2129 16.1738 74.2344C16.1621 74.248 16.1484 74.2617 16.1367 74.2773C16.125 74.293 16.1132 74.3086 16.1015 74.3262C16.0859 74.3477 16.0703 74.3672 16.0566 74.3906C16.0566 74.3926 16.0527 74.3945 16.0507 74.3984L1.97652 96.1309C1.62691 96.6719 1.70113 97.3848 2.15816 97.8418C2.42183 98.1055 2.77144 98.2422 3.12496 98.2422C3.38082 98.2422 3.64058 98.1699 3.86715 98.0234L25.6035 83.9453C25.6035 83.9453 25.6035 83.9453 25.6054 83.9453C25.6308 83.9297 25.6543 83.9121 25.6777 83.8926C25.6914 83.8828 25.707 83.873 25.7207 83.8613C25.7324 83.8516 25.7421 83.8418 25.7539 83.832C25.7793 83.8105 25.8027 83.7891 25.8261 83.7656L40.2832 69.3086C41.3164 69.8281 42.3867 70.2676 43.4843 70.6133L45.541 75.9336C45.7441 76.4609 46.2519 76.8086 46.8164 76.8086H53.1718C53.7363 76.8086 54.2421 76.4609 54.4472 75.9355L56.5078 70.6152C57.6953 70.2402 58.8535 69.7617 59.9628 69.1855L60.0293 69.2148L68.8007 77.9805C67.0078 83.2539 68.3418 89.0859 72.3203 93.0645C75.121 95.8613 78.8125 97.3633 82.6425 97.3633C83.832 97.3633 85.0351 97.2188 86.2285 96.9219C86.707 96.8027 87.0839 96.4355 87.2168 95.9609C87.3496 95.4863 87.2168 94.9766 86.8671 94.627L78.8535 86.6094L80.4882 80.4961L86.6035 78.8613L94.621 86.8789C94.9707 87.2285 95.4785 87.3613 95.955 87.2285C96.4296 87.0957 96.7968 86.7188 96.916 86.2402C98.166 81.1973 96.7207 75.9961 93.0507 72.3262C89.0742 68.3496 83.2441 67.0156 77.9726 68.8086L77.9746 68.8047ZM88.5996 5.67188C90.1796 4.0957 92.75 4.0957 94.3281 5.66992C95.9043 7.25 95.9043 9.82031 94.3281 11.4004L71.5898 34.1348C71.5605 33.8223 71.4296 33.5234 71.1972 33.291L66.7011 28.8008C66.4707 28.5703 66.1718 28.4395 65.8593 28.4102L88.5957 5.67383L88.5996 5.67188ZM21.8828 28.375C17.6211 30.125 12.164 29.0332 8.90816 25.7773C6.46285 23.334 5.25777 20.2871 5.39644 17.0156L12.0507 23.6699C12.3964 24.0156 12.9003 24.1504 13.3711 24.0234L21.0039 21.9805C21.4765 21.8535 21.8457 21.4863 21.9726 21.0137L24.0214 13.373C24.1484 12.9004 24.0136 12.3965 23.6679 12.0527L17.0136 5.39844C20.2832 5.25977 23.33 6.4668 25.7754 8.91016C29.0312 12.166 30.123 17.623 28.373 21.8848C28.164 22.3945 28.2812 22.9805 28.6718 23.3711L33.7851 28.4844C33.6015 28.5508 33.4316 28.6562 33.289 28.7988L28.7988 33.2891C28.6562 33.4316 28.5507 33.6035 28.4824 33.7852L23.3691 28.6719C22.9785 28.2813 22.3925 28.1641 21.8828 28.373V28.375ZM28.4082 65.8633C28.4375 66.1738 28.5683 66.4727 28.7988 66.7051L33.289 71.2012C33.5195 71.4316 33.8203 71.5645 34.1308 71.5918L24.8593 80.8613L19.1308 75.1387L28.4062 65.8633H28.4082ZM17.4277 77.3008L22.6972 82.5664L7.74801 92.25L17.4277 77.3008ZM55.1093 68.1738C54.6953 68.2891 54.3593 68.5957 54.2031 68.9961L52.2382 74.0684H47.7578L45.7988 68.9961C45.6425 68.5938 45.3066 68.2891 44.8925 68.1719C43.4609 67.7715 42.0722 67.1953 40.7617 66.4629C40.3867 66.252 39.9336 66.2324 39.541 66.4043L39.4609 66.4395C39.4023 66.4609 39.3437 66.4863 39.289 66.5156L34.5625 68.6016L31.3964 65.4316L33.5918 60.459C33.7656 60.0664 33.7441 59.6133 33.5332 59.2383C32.8027 57.9355 32.2265 56.543 31.8183 55.1035C31.7011 54.6914 31.3964 54.3574 30.998 54.2012L25.9296 52.2363V47.7539L30.996 45.7949C31.3984 45.6387 31.7031 45.3027 31.8203 44.8887C32.2168 43.4707 32.7949 42.0801 33.5351 40.7578C33.746 40.3828 33.7675 39.9316 33.5937 39.5371L33.2089 38.666C33.2011 38.6484 33.1933 38.6309 33.1855 38.6133L31.3964 34.5586L34.5625 31.3926L38.6132 33.1797C38.6328 33.1875 38.6503 33.1973 38.6699 33.2051L39.541 33.5898C39.9336 33.7637 40.3867 33.7422 40.7617 33.5312C42.0703 32.7988 43.4589 32.2227 44.8925 31.8223C45.3086 31.7051 45.6445 31.4004 45.7988 30.998L47.7578 25.9258H52.2382L54.2031 30.998C54.3593 31.4004 54.6953 31.7051 55.1093 31.8203C56.541 32.2207 57.9296 32.7969 59.2402 33.5293C59.6152 33.7402 60.0683 33.7617 60.4609 33.5879L65.4335 31.3906L68.6035 34.5566L66.4023 39.5352C66.2285 39.9297 66.25 40.3848 66.4629 40.7598C67.1972 42.0605 67.7734 43.4492 68.1757 44.8867C68.2929 45.3027 68.5976 45.6387 69 45.793L74.0722 47.752V52.2324L69 54.1973C68.5976 54.3535 68.2929 54.6895 68.1777 55.1035C67.7754 56.541 67.1992 57.9297 66.4648 59.2305C66.2519 59.6074 66.2304 60.0605 66.4062 60.4551L68.6074 65.4277L65.4375 68.5977L60.4648 66.4023C60.0722 66.2285 59.6191 66.25 59.2441 66.4609C57.9355 67.1934 56.5468 67.7695 55.1132 68.1699L55.1093 68.1738ZM94.6152 82.998L87.9804 76.3633C87.6347 76.0176 87.1308 75.8828 86.6601 76.0098L79.0214 78.0527C78.5488 78.1797 78.1796 78.5469 78.0527 79.0195L76.0097 86.6621C75.8847 87.1328 76.0195 87.6367 76.3632 87.9805L82.996 94.6172C79.7558 94.7188 76.6191 93.4824 74.2578 91.125C70.8437 87.7109 69.8242 82.6191 71.6601 78.1504C71.8691 77.6406 71.7519 77.0527 71.3613 76.6641L66.2109 71.5156C66.3925 71.4492 66.5625 71.3438 66.705 71.2012L71.2011 66.7051C71.3437 66.5625 71.4492 66.3926 71.5156 66.2109L76.664 71.3613C77.0546 71.752 77.6406 71.8691 78.1504 71.6602C82.6152 69.8262 87.707 70.8457 91.1191 74.2578C93.4804 76.6191 94.7089 79.7598 94.6171 83L94.6152 82.998ZM64.873 49.9961C64.873 41.7969 58.1992 35.125 49.9961 35.125C41.7929 35.125 35.125 41.7969 35.125 49.9961C35.125 58.1953 41.7968 64.873 49.9961 64.873C58.1953 64.873 64.873 58.1992 64.873 49.9961ZM49.9961 62.1367C43.3046 62.1367 37.8593 56.6895 37.8593 49.9961C37.8593 43.3027 43.3027 37.8613 49.9961 37.8613C56.6894 37.8613 62.1367 43.3047 62.1367 49.9961C62.1367 56.6875 56.6894 62.1367 49.9961 62.1367Z" fill="#F42525"/>
</g>
</svg>
